<?xml version="1.0" encoding="utf-8"?>
<!-- Generator: Adobe Illustrator 26.5.0, SVG Export Plug-In . SVG Version: 6.00 Build 0)  -->
<svg version="1.1" id="Layer_1" xmlns="http://www.w3.org/2000/svg" xmlns:xlink="http://www.w3.org/1999/xlink" x="0px" y="0px"
	 viewBox="0 0 566.9 566.9" style="enable-background:new 0 0 566.9 566.9;" xml:space="preserve">
<style type="text/css">
	.st0{fill:url(#SVGID_1_);}
	.st1{fill:#FFF8A3;}
</style>
<g>
	
		<radialGradient id="SVGID_1_" cx="283.465" cy="284.425" r="205.102" gradientTransform="matrix(1 0 0 -1 0 567.89)" gradientUnits="userSpaceOnUse">
		<stop  offset="0.439" style="stop-color:#FFFFFF"/>
		<stop  offset="0.7077" style="stop-color:#FDFAE4"/>
		<stop  offset="1" style="stop-color:#FCF6CA"/>
	</radialGradient>
	<circle class="st0" cx="283.5" cy="283.5" r="205.1"/>
	<path class="st1" d="M524.5,236.7c-1.8,0.2-4.3,0.6-7,0.9l-8.4-31.4c2.5-1,4.9-2,6.6-2.7c3.6-1.5,8.2-3.9,12.9-7.5
		c3.4-2.6,6.8-5.8,10.1-9.9l-2.9-7.1l-2.9-7.1c-12.4-1.3-22.3,1.4-28.5,4c-1.7,0.7-4,1.7-6.6,2.7l-16.3-28.2
		c2.2-1.7,4.2-3.2,5.6-4.3c5.4-4.1,12.7-11.3,17.7-22.7l-4.7-6.1l-4.7-6.1c-12.3,1.9-21.1,7.1-26.5,11.2c-1.5,1.1-3.5,2.7-5.6,4.3
		l-23-23c1.7-2.2,3.2-4.2,4.3-5.6c4.1-5.4,9.3-14.2,11.2-26.5l-6.1-4.7l-6.1-4.7c-11.4,5-18.6,12.3-22.7,17.7
		c-1.1,1.5-2.7,3.5-4.3,5.6l-28.2-16.3c1-2.5,2-4.9,2.7-6.6c2.6-6.2,5.3-16.1,4-28.5l-7.1-2.9l-7.1-2.9c-9.7,7.8-14.7,16.7-17.3,23
		c-0.7,1.7-1.7,4-2.7,6.6l-31.4-8.4c0.4-2.7,0.7-5.2,0.9-7c0.9-6.7,1-17-3.5-28.6l-7.6-1l-7.6-1c-7.4,10-9.9,20-10.8,26.7
		c-0.2,1.8-0.6,4.3-0.9,7l-32.5,0v0c-0.4-2.7-0.7-5.2-0.9-7c-0.9-6.7-3.4-16.6-10.8-26.7l-7.6,1l-7.6,1c-1.9,4.8-3,9.4-3.5,13.7
		c-0.8,5.9-0.5,11,0,14.9c0.2,1.8,0.6,4.3,0.9,7l-31.4,8.4c-1-2.5-2-4.9-2.7-6.6c-1.5-3.6-3.8-8.2-7.5-12.9
		c-2.6-3.4-5.8-6.8-9.9-10.1l-7.1,2.9l-7.1,2.9c-1.3,12.4,1.4,22.3,4,28.5c0.7,1.7,1.7,4,2.7,6.6l-28.2,16.3
		c-1.7-2.2-3.2-4.2-4.3-5.6c-4.1-5.4-11.3-12.7-22.7-17.7l-6.1,4.7l-6.1,4.7c1.9,12.3,7.1,21.1,11.2,26.5c1.1,1.5,2.7,3.5,4.3,5.6
		l-23,23c-2.2-1.7-4.2-3.2-5.6-4.3c-5.4-4.1-14.2-9.3-26.5-11.2l-4.7,6.1l-4.7,6.1c5,11.4,12.3,18.6,17.7,22.7
		c1.5,1.1,3.5,2.7,5.6,4.3l-16.3,28.2c-2.5-1-4.9-2-6.6-2.7c-6.2-2.6-16.1-5.3-28.5-4l-2.9,7.1l-2.9,7.1c7.8,9.7,16.7,14.7,23,17.3
		c1.7,0.7,4,1.7,6.6,2.7l-8.4,31.4c-2.7-0.4-5.2-0.7-7-0.9c-6.7-0.9-17-1-28.6,3.5l-1,7.6l-1,7.6c10,7.3,20,9.9,26.7,10.8
		c1.8,0.2,4.3,0.6,7,0.9v32.5c-2.7,0.4-5.2,0.7-7,0.9c-6.7,0.9-16.6,3.4-26.7,10.8l1,7.6l1,7.6c4.8,1.9,9.4,3,13.7,3.5
		c5.9,0.8,11,0.5,14.9,0c1.8-0.2,4.3-0.6,7-0.9l8.4,31.4c-2.5,1-4.9,2-6.6,2.7c-3.6,1.5-8.2,3.9-12.9,7.5c-3.4,2.6-6.8,5.8-10.1,9.9
		l2.9,7.1l2.9,7.1c12.4,1.3,22.3-1.4,28.5-4c1.7-0.7,4-1.7,6.6-2.7l16.3,28.2c-2.2,1.7-4.2,3.2-5.6,4.3
		c-5.4,4.1-12.7,11.3-17.7,22.7l4.7,6.1l4.7,6.1c12.3-1.9,21.1-7.1,26.5-11.2c1.5-1.1,3.5-2.7,5.6-4.3l23,23
		c-1.7,2.2-3.2,4.2-4.3,5.6c-4.1,5.4-9.3,14.2-11.2,26.5l6.1,4.7l6.1,4.7c11.4-5,18.6-12.3,22.7-17.7c1.1-1.5,2.7-3.5,4.3-5.6
		l28.2,16.3c-1,2.5-2,4.9-2.7,6.6c-2.6,6.2-5.3,16.1-4,28.5l7.1,2.9l7.1,2.9c9.7-7.8,14.7-16.7,17.3-23c0.7-1.7,1.7-4,2.7-6.6
		l31.4,8.4c-0.4,2.7-0.7,5.2-0.9,7c-0.9,6.7-1,17,3.5,28.6l15.3,2c7.3-10,9.9-20,10.8-26.7c0.2-1.8,0.6-4.3,0.9-7h32.5
		c0.4,2.7,0.7,5.2,0.9,7c0.9,6.7,3.4,16.6,10.8,26.7l7.6-1l7.6-1c1.9-4.8,3-9.4,3.5-13.7c0.8-5.9,0.5-11,0-14.9
		c-0.2-1.8-0.6-4.3-0.9-7l31.4-8.4c1,2.5,2,4.9,2.7,6.6c1.5,3.6,3.9,8.2,7.5,12.9c2.6,3.4,5.8,6.8,9.9,10.1l7.1-2.9l7.1-2.9
		c1.3-12.4-1.4-22.3-4-28.5c-0.7-1.7-1.7-4-2.7-6.6l28.2-16.3c1.7,2.2,3.2,4.2,4.3,5.6c4.1,5.4,11.3,12.7,22.7,17.7l6.1-4.7l6.1-4.7
		c-1.9-12.3-7.1-21.1-11.2-26.5c-1.1-1.5-2.7-3.5-4.3-5.6l23-23c2.2,1.7,4.2,3.2,5.6,4.3c5.4,4.1,14.2,9.3,26.5,11.2l4.7-6.1
		l4.7-6.1c-5-11.4-12.3-18.6-17.7-22.7c-1.5-1.1-3.5-2.7-5.6-4.3l16.3-28.2c2.5,1,4.9,2,6.6,2.7c6.2,2.6,16.1,5.3,28.5,4l2.9-7.1
		l2.9-7.1c-7.8-9.7-16.7-14.7-23-17.3c-1.7-0.7-4-1.7-6.6-2.7l8.4-31.4c2.7,0.4,5.2,0.7,7,0.9c6.7,0.9,17,1,28.6-3.5l1-7.6l1-7.6
		c-10-7.3-20-9.9-26.7-10.8c-1.8-0.2-4.3-0.6-7-0.9v-32.5c2.7-0.4,5.2-0.7,7-0.9c6.7-0.9,16.6-3.4,26.7-10.8l-1-7.6l-1-7.6
		c-4.8-1.9-9.4-3-13.7-3.5C533.5,235.9,528.4,236.2,524.5,236.7z M210.6,92.8l38.6,143.9c-13.1,9.6-21.6,24.3-23.4,40.5L81.8,315.7
		C66.5,220.5,120.4,127.1,210.6,92.8z M315.7,485.1c-95.2,15.3-188.6-38.6-222.9-128.7l143.9-38.6c9.6,13.1,24.3,21.6,40.5,23.4
		L315.7,485.1z M288.9,303.8c-11.2,3-22.8-3.7-25.8-14.9c-3-11.2,3.7-22.8,14.9-25.8c11.2-3,22.8,3.7,25.8,14.9
		C306.8,289.3,300.2,300.8,288.9,303.8z M356.4,474.2l-38.6-143.9c13.1-9.6,21.6-24.3,23.4-40.5l143.9-38.6
		C500.4,346.5,446.5,439.9,356.4,474.2z M330.3,249.1c-9.6-13.1-24.3-21.6-40.5-23.4L251.3,81.8c95.2-15.3,188.6,38.6,222.9,128.7
		L330.3,249.1z"/>
</g>
</svg>
