<?xml version="1.0" encoding="utf-8"?>
<!-- Generator: Adobe Illustrator 26.5.0, SVG Export Plug-In . SVG Version: 6.00 Build 0)  -->
<svg version="1.1" xmlns="http://www.w3.org/2000/svg" xmlns:xlink="http://www.w3.org/1999/xlink" x="0px" y="0px"
	 viewBox="0 0 101 101" style="enable-background:new 0 0 101 101;" xml:space="preserve">
<style type="text/css">
	.st0{stroke:#FDF5A6;stroke-miterlimit:10;}
</style>
<g id="Layer_1">
</g>
<g id="Layer_2">
	<polygon class="st0" points="50.5,17 56,15.7 60.9,18.6 66.5,19.1 70.2,23.4 75.4,25.6 77.6,30.8 81.9,34.5 82.4,40.1 85.3,45 
		84,50.5 85.3,56 82.4,60.9 81.9,66.5 77.6,70.2 75.4,75.4 70.2,77.6 66.5,81.9 60.9,82.4 56,85.3 50.5,84 45,85.3 40.1,82.4 
		34.5,81.9 30.8,77.6 25.6,75.4 23.4,70.2 19.1,66.5 18.6,60.9 15.7,56 17,50.5 15.7,45 18.6,40.1 19.1,34.5 23.4,30.8 25.6,25.6 
		30.8,23.4 34.5,19.1 40.1,18.6 45,15.7 	"/>
</g>
</svg>
