<?xml version="1.0" encoding="utf-8"?>
<!-- Generator: Adobe Illustrator 16.0.0, SVG Export Plug-In . SVG Version: 6.00 Build 0)  -->
<!DOCTYPE svg PUBLIC "-//W3C//DTD SVG 1.1//EN" "http://www.w3.org/Graphics/SVG/1.1/DTD/svg11.dtd">
<svg version="1.1" id="Layer_1" xmlns="http://www.w3.org/2000/svg" xmlns:xlink="http://www.w3.org/1999/xlink" x="0px" y="0px"
	 width="566.93px" height="566.93px" viewBox="0 0 566.93 566.93" enable-background="new 0 0 566.93 566.93" xml:space="preserve">
<g>
	<radialGradient id="SVGID_1_" cx="283.4648" cy="283.4648" r="205.1015" gradientUnits="userSpaceOnUse">
		<stop  offset="0.439" style="stop-color:#FFFFFF"/>
		<stop  offset="0.7077" style="stop-color:#FDFAE4"/>
		<stop  offset="1" style="stop-color:#FCF6CA"/>
	</radialGradient>
	<circle fill="url(#SVGID_1_)" cx="283.465" cy="283.465" r="205.102"/>
	<path fill="#FFF8A3" d="M524.488,236.69c-1.819,0.241-4.338,0.573-7.045,0.929l-8.424-31.438c2.518-1.043,4.867-2.017,6.564-2.719
		c3.637-1.505,8.188-3.85,12.896-7.462c3.37-2.585,6.825-5.825,10.075-9.871l-2.944-7.104l-2.943-7.108
		c-12.361-1.347-22.255,1.404-28.497,3.985c-1.694,0.705-4.044,1.677-6.565,2.719l-16.273-28.184c2.16-1.659,4.178-3.207,5.638-4.33
		c5.356-4.107,12.688-11.301,17.701-22.684l-4.681-6.102l-4.684-6.103c-12.29,1.898-21.139,7.118-26.498,11.224
		c-1.452,1.12-3.471,2.667-5.634,4.328l-23.017-23.012c1.662-2.164,3.209-4.181,4.327-5.64c4.11-5.358,9.33-14.202,11.228-26.495
		l-6.101-4.681l-6.104-4.684c-11.381,5.016-18.576,12.346-22.688,17.701c-1.117,1.459-2.665,3.474-4.325,5.64l-28.186-16.273
		c1.041-2.52,2.014-4.868,2.718-6.568c2.583-6.238,5.337-16.132,3.989-28.497l-7.107-2.945l-7.108-2.944
		c-9.694,7.792-14.743,16.734-17.332,22.971c-0.698,1.697-1.673,4.044-2.719,6.567l-31.438-8.424
		c0.357-2.703,0.69-5.225,0.928-7.045c0.883-6.697,0.98-16.966-3.522-28.559l-7.626-1.003l-7.627-1.007
		c-7.35,10.036-9.913,19.981-10.799,26.676c-0.234,1.821-0.566,4.338-0.926,7.045l-32.546,0.002v-0.004
		c-0.356-2.704-0.688-5.223-0.928-7.045c-0.881-6.695-3.445-16.641-10.795-26.672l-7.63,1.002l-7.627,1.003
		c-1.875,4.838-2.954,9.446-3.507,13.662c-0.775,5.882-0.528,10.998-0.015,14.897c0.241,1.82,0.573,4.341,0.927,7.045l-31.437,8.424
		c-1.044-2.518-2.017-4.869-2.72-6.565c-1.505-3.634-3.849-8.187-7.461-12.895c-2.586-3.375-5.823-6.825-9.87-10.076l-7.109,2.944
		l-7.105,2.946c-1.347,12.361,1.402,22.257,3.987,28.495c0.703,1.699,1.675,4.048,2.721,6.566l-28.189,16.276
		c-1.658-2.166-3.207-4.181-4.325-5.64c-4.11-5.358-11.303-12.687-22.686-17.704l-6.103,4.686l-6.104,4.683
		c1.901,12.29,7.118,21.135,11.227,26.495c1.12,1.457,2.667,3.474,4.326,5.635l-23.013,23.016c-2.162-1.661-4.179-3.208-5.637-4.326
		c-5.357-4.109-14.204-9.331-26.496-11.228l-4.683,6.105l-4.683,6.103c5.017,11.381,12.347,18.573,17.702,22.684
		c1.459,1.119,3.474,2.667,5.637,4.326l-16.272,28.188c-2.519-1.045-4.868-2.018-6.566-2.721
		c-6.239-2.585-16.132-5.338-28.496-3.988l-2.943,7.108l-2.946,7.108c7.791,9.691,16.734,14.744,22.97,17.329
		c1.698,0.702,4.047,1.674,6.566,2.719l-8.425,31.438c-2.7-0.355-5.222-0.688-7.043-0.928c-6.695-0.88-16.964-0.978-28.558,3.525
		l-1.006,7.626l-1.003,7.627c10.035,7.346,19.979,9.914,26.672,10.796c1.821,0.238,4.342,0.57,7.047,0.929v32.543
		c-2.701,0.357-5.225,0.689-7.045,0.93c-6.696,0.88-16.641,3.446-26.674,10.796l1.003,7.626l1.004,7.629
		c4.84,1.878,9.447,2.953,13.661,3.508c5.883,0.776,10.995,0.529,14.895,0.016c1.824-0.24,4.345-0.573,7.047-0.927l8.424,31.436
		c-2.518,1.045-4.869,2.017-6.565,2.721c-3.636,1.506-8.192,3.85-12.9,7.465c-3.371,2.584-6.819,5.818-10.068,9.864l2.941,7.107
		l2.945,7.108c12.363,1.347,22.258-1.406,28.496-3.984c1.696-0.709,4.046-1.681,6.567-2.723l16.272,28.187
		c-2.162,1.659-4.181,3.209-5.636,4.326c-5.358,4.111-12.689,11.305-17.704,22.686l4.682,6.102l4.683,6.104
		c12.293-1.898,21.138-7.117,26.495-11.223c1.458-1.12,3.474-2.672,5.638-4.33l23.016,23.015c-1.66,2.163-3.21,4.181-4.327,5.638
		c-4.11,5.357-9.329,14.204-11.228,26.493l6.104,4.684l6.103,4.684c11.382-5.015,18.575-12.345,22.686-17.701
		c1.116-1.457,2.664-3.474,4.326-5.64l28.185,16.273c-1.041,2.521-2.015,4.868-2.718,6.568c-2.583,6.236-5.337,16.131-3.986,28.495
		l7.105,2.944l7.107,2.942c9.696-7.788,14.745-16.73,17.332-22.967c0.702-1.699,1.675-4.048,2.719-6.566l31.438,8.422
		c-0.356,2.704-0.687,5.225-0.926,7.047c-0.881,6.695-0.979,16.965,3.522,28.559l15.254,2.007
		c7.347-10.032,9.912-19.978,10.797-26.67c0.236-1.824,0.569-4.343,0.924-7.048h32.547c0.356,2.702,0.689,5.224,0.93,7.045
		c0.88,6.696,3.444,16.641,10.795,26.673l7.627-1.002l7.624-1.007c1.882-4.838,2.958-9.443,3.512-13.662
		c0.777-5.881,0.529-10.994,0.017-14.894c-0.243-1.822-0.573-4.344-0.931-7.048l31.438-8.424c1.043,2.518,2.017,4.867,2.72,6.564
		c1.508,3.637,3.852,8.193,7.464,12.902c2.586,3.371,5.823,6.819,9.867,10.068l7.107-2.939l7.108-2.948
		c1.347-12.361-1.406-22.255-3.987-28.497c-0.706-1.694-1.679-4.044-2.72-6.565l28.186-16.273c1.66,2.163,3.208,4.182,4.327,5.638
		c4.109,5.356,11.305,12.688,22.686,17.701l6.101-4.681l6.104-4.683c-1.897-12.291-7.115-21.138-11.225-26.495
		c-1.118-1.456-2.67-3.473-4.33-5.636l23.017-23.015c2.16,1.656,4.179,3.203,5.638,4.323c5.357,4.11,14.204,9.332,26.493,11.228
		l4.685-6.101l4.683-6.104c-5.015-11.381-12.345-18.573-17.701-22.688c-1.458-1.117-3.477-2.662-5.64-4.324l16.273-28.187
		c2.519,1.042,4.868,2.018,6.565,2.72c6.238,2.584,16.134,5.337,28.498,3.987l2.944-7.105l2.942-7.11
		c-7.791-9.694-16.73-14.745-22.973-17.331c-1.693-0.699-4.042-1.674-6.561-2.717l8.422-31.439c2.7,0.355,5.225,0.688,7.047,0.927
		c6.692,0.88,16.965,0.979,28.558-3.523l1.004-7.626l1.004-7.627c-10.032-7.349-19.979-9.913-26.673-10.799
		c-1.821-0.237-4.341-0.566-7.045-0.926v-32.547c2.702-0.354,5.224-0.685,7.045-0.927c6.695-0.881,16.641-3.443,26.673-10.794
		l-1.004-7.625l-1.005-7.629c-4.837-1.879-9.442-2.955-13.655-3.509C533.507,235.933,528.389,236.178,524.488,236.69z
		 M210.55,92.753l38.555,143.889c-13.08,9.603-21.595,24.349-23.37,40.479L81.847,315.677
		C66.517,220.469,120.436,127.082,210.55,92.753z M315.674,485.084c-95.203,15.328-188.59-38.588-222.92-128.699l143.892-38.557
		c9.602,13.078,24.349,21.592,40.475,23.365L315.674,485.084z M288.918,303.817c-11.241,3.015-22.794-3.657-25.807-14.897
		c-3.013-11.241,3.659-22.795,14.9-25.808c11.24-3.013,22.795,3.658,25.807,14.9C306.83,289.253,300.16,300.808,288.918,303.817z
		 M356.381,474.177l-38.556-143.89c13.075-9.602,21.593-24.349,23.366-40.473l143.893-38.556
		C500.409,346.461,446.493,439.85,356.381,474.177z M330.287,249.106c-9.598-13.08-24.349-21.595-40.476-23.371l-38.555-143.89
		c95.204-15.327,188.592,38.593,222.919,128.707L330.287,249.106z"/>
	<g>
		<path fill="#414042" d="M90.508,248.354l-2.556,22.88c-0.077,0.689-0.295,1.32-0.654,1.891c-0.359,0.57-0.806,1.055-1.341,1.452
			c-0.535,0.396-1.134,0.689-1.8,0.876c-0.666,0.188-1.343,0.243-2.033,0.166c-0.69-0.077-1.355-0.282-1.996-0.616
			c-0.641-0.333-1.198-0.755-1.671-1.265c-0.474-0.509-0.836-1.084-1.087-1.723c-0.251-0.639-0.338-1.304-0.261-1.993l2.112-18.901
			l-9.053-1.011l0.444-3.979L90.508,248.354z M79.21,267.438c-0.06,0.53-0.015,1.036,0.133,1.516
			c0.147,0.48,0.372,0.908,0.672,1.284c0.3,0.376,0.671,0.689,1.113,0.94c0.442,0.25,0.922,0.405,1.439,0.463
			c0.531,0.059,1.019,0.013,1.466-0.139c0.446-0.151,0.841-0.379,1.184-0.684c0.343-0.304,0.623-0.676,0.84-1.115
			c0.217-0.439,0.355-0.924,0.414-1.454l1.801-16.116l-7.262-0.812L79.21,267.438z"/>
		<path fill="#414042" d="M74.931,310.827c0.532-0.043,1.002-0.182,1.412-0.416c0.409-0.234,0.753-0.533,1.031-0.897
			s0.482-0.783,0.611-1.256c0.128-0.472,0.171-0.975,0.128-1.507l-1.32-16.162l-9.079,0.741l-0.326-3.99l19.953-1.629l1.874,22.946
			c0.057,0.691-0.037,1.352-0.28,1.98c-0.244,0.63-0.589,1.19-1.038,1.682c-0.449,0.492-0.981,0.895-1.599,1.206
			c-0.618,0.312-1.272,0.495-1.964,0.552c-0.905,0.073-1.79-0.065-2.655-0.416c-0.865-0.352-1.593-0.857-2.183-1.52
			c-0.435,0.745-1.027,1.359-1.778,1.843c-0.751,0.483-1.572,0.761-2.463,0.834l-5.587,0.456l-0.326-3.99L74.931,310.827z
			 M79.922,306.765c0.054,0.504,0.203,0.971,0.445,1.399s0.547,0.792,0.913,1.091c0.366,0.298,0.783,0.521,1.25,0.671
			s0.961,0.203,1.479,0.16c0.532-0.043,1.002-0.182,1.412-0.416c0.409-0.234,0.753-0.534,1.032-0.898
			c0.278-0.363,0.481-0.782,0.61-1.255s0.171-0.975,0.128-1.507l-1.319-16.162l-7.283,0.595L79.922,306.765z"/>
		<path fill="#414042" d="M75.084,339.388c-0.255-0.885-0.385-1.771-0.39-2.658c-0.005-0.888,0.098-1.747,0.31-2.579
			c0.212-0.832,0.525-1.623,0.941-2.375c0.416-0.752,0.919-1.438,1.511-2.06c0.592-0.622,1.265-1.166,2.02-1.634
			c0.754-0.467,1.574-0.827,2.459-1.082c0.885-0.255,1.771-0.385,2.659-0.391c0.887-0.005,1.747,0.099,2.579,0.311
			c0.832,0.212,1.623,0.525,2.375,0.941c0.751,0.415,1.438,0.919,2.06,1.511s1.166,1.266,1.633,2.02
			c0.467,0.754,0.828,1.574,1.083,2.459l2.215,7.696c0.38,1.32,0.486,2.641,0.317,3.96s-0.562,2.537-1.178,3.651
			c-0.617,1.115-1.439,2.095-2.467,2.939c-1.027,0.844-2.202,1.456-3.523,1.837c-0.885,0.254-1.771,0.385-2.659,0.39
			c-0.887,0.006-1.747-0.098-2.579-0.31c-0.832-0.212-1.624-0.526-2.375-0.941c-0.751-0.416-1.438-0.92-2.06-1.512
			c-0.622-0.592-1.167-1.265-1.633-2.02c-0.467-0.754-0.828-1.574-1.083-2.459L75.084,339.388z M83.153,331.232
			c-1.09,0.313-2.058,0.813-2.901,1.501s-1.519,1.489-2.026,2.406c-0.507,0.917-0.828,1.915-0.961,2.995
			c-0.134,1.08-0.043,2.165,0.27,3.256l0.775,2.693c0.313,1.09,0.814,2.057,1.501,2.9c0.687,0.845,1.489,1.52,2.406,2.026
			c0.917,0.507,1.915,0.827,2.995,0.961s2.165,0.044,3.255-0.27c1.09-0.314,2.057-0.814,2.901-1.502
			c0.844-0.688,1.519-1.489,2.026-2.406c0.507-0.916,0.827-1.915,0.961-2.995s0.043-2.165-0.27-3.255l-0.775-2.693
			c-0.313-1.091-0.814-2.058-1.501-2.901c-0.688-0.844-1.489-1.52-2.406-2.026c-0.917-0.507-1.915-0.827-2.995-0.961
			S84.243,330.919,83.153,331.232z"/>
		<path fill="#414042" d="M102.888,360.192l1.097,2.138l-11.25,17.496l20.939,1.384l2.011,3.918l-23.295-1.546l-2.011-3.919
			L102.888,360.192z"/>
		<path fill="#414042" d="M111.359,413.499c-0.568-0.726-1.021-1.498-1.358-2.318c-0.338-0.821-0.564-1.656-0.679-2.507
			c-0.116-0.851-0.122-1.702-0.018-2.555c0.103-0.853,0.313-1.679,0.629-2.477c0.315-0.798,0.735-1.555,1.26-2.271
			c0.524-0.716,1.149-1.358,1.874-1.926c0.725-0.568,1.498-1.021,2.318-1.358c0.82-0.338,1.656-0.564,2.507-0.68
			c0.85-0.115,1.702-0.121,2.555-0.018c0.852,0.104,1.678,0.313,2.476,0.629c0.798,0.316,1.555,0.735,2.271,1.26
			s1.358,1.149,1.926,1.874l11.11,14.185l-1.418,1.111l-9.505-12.136c-0.659-0.841-1.423-1.514-2.293-2.019s-1.79-0.84-2.758-1.005
			c-0.969-0.166-1.946-0.158-2.933,0.021s-1.922,0.539-2.805,1.078l14.542,18.565l-1.418,1.111L115.098,403.5
			c-0.735,0.729-1.311,1.553-1.726,2.472c-0.416,0.919-0.658,1.866-0.724,2.843c-0.066,0.976,0.042,1.946,0.324,2.912
			c0.282,0.966,0.752,1.869,1.41,2.71l9.506,12.136l-1.418,1.11L111.359,413.499z"/>
		<path fill="#414042" d="M169.26,455.184l-4.14-15.287l4.697,3.06l3.111,11.511l12.322-1.46l3.355,2.186L173.333,457l-5.55,8.522
			l-3.69-2.404L169.26,455.184z"/>
		<path fill="#414042" d="M198.852,481.938c-0.854-0.346-1.631-0.79-2.333-1.334c-0.702-0.543-1.314-1.154-1.838-1.835
			c-0.524-0.68-0.953-1.415-1.288-2.206s-0.564-1.611-0.688-2.46c-0.125-0.85-0.137-1.716-0.039-2.598
			c0.098-0.882,0.32-1.749,0.666-2.603s0.79-1.632,1.333-2.333c0.543-0.701,1.155-1.314,1.835-1.838
			c0.68-0.523,1.415-0.953,2.207-1.288c0.791-0.335,1.611-0.564,2.46-0.688c0.85-0.123,1.715-0.137,2.597-0.039
			c0.881,0.099,1.75,0.32,2.603,0.666l7.422,3.006c1.274,0.516,2.378,1.248,3.312,2.194c0.934,0.947,1.649,2.008,2.146,3.181
			c0.497,1.173,0.76,2.425,0.791,3.755c0.03,1.329-0.213,2.632-0.729,3.905c-0.345,0.854-0.79,1.632-1.333,2.333
			c-0.543,0.701-1.155,1.313-1.835,1.838c-0.68,0.523-1.416,0.953-2.206,1.288c-0.792,0.335-1.611,0.564-2.46,0.688
			c-0.85,0.124-1.715,0.137-2.597,0.038c-0.882-0.098-1.75-0.319-2.603-0.665L198.852,481.938z M197.414,470.556
			c-0.426,1.051-0.629,2.121-0.608,3.209c0.02,1.088,0.234,2.114,0.643,3.079c0.409,0.965,0.997,1.833,1.764,2.604
			c0.767,0.771,1.677,1.37,2.729,1.796l2.598,1.053c1.051,0.426,2.121,0.629,3.209,0.608c1.088-0.021,2.114-0.234,3.079-0.644
			c0.964-0.408,1.833-0.996,2.604-1.764s1.371-1.677,1.796-2.729c0.426-1.051,0.628-2.121,0.608-3.209
			c-0.02-1.089-0.234-2.114-0.643-3.079c-0.409-0.965-0.997-1.833-1.764-2.604s-1.677-1.37-2.729-1.796l-2.598-1.053
			c-1.052-0.426-2.121-0.628-3.209-0.608c-1.088,0.021-2.114,0.234-3.079,0.643c-0.964,0.409-1.833,0.997-2.604,1.765
			C198.438,468.595,197.84,469.504,197.414,470.556z"/>
		<path fill="#414042" d="M258.945,488.155c-0.17,0.904-0.453,1.755-0.847,2.55c-0.394,0.795-0.873,1.517-1.436,2.164
			c-0.563,0.647-1.2,1.214-1.909,1.698c-0.709,0.484-1.468,0.871-2.276,1.16s-1.654,0.473-2.538,0.551s-1.778,0.032-2.683-0.138
			l-7.87-1.481c-0.905-0.171-1.755-0.453-2.55-0.848c-0.795-0.394-1.516-0.872-2.164-1.436c-0.647-0.563-1.214-1.199-1.698-1.909
			c-0.484-0.709-0.871-1.468-1.16-2.275c-0.29-0.809-0.473-1.654-0.551-2.538s-0.032-1.778,0.139-2.684l1.852-9.837l3.935,0.74
			l-1.852,9.838c-0.21,1.114-0.174,2.207,0.106,3.279c0.28,1.071,0.739,2.043,1.376,2.917c0.637,0.874,1.427,1.617,2.371,2.229
			c0.944,0.613,1.974,1.023,3.088,1.233l2.754,0.519c1.115,0.21,2.224,0.202,3.326-0.025s2.108-0.632,3.019-1.214
			c0.911-0.583,1.692-1.321,2.343-2.218c0.65-0.896,1.081-1.901,1.291-3.017l1.852-9.837l3.935,0.741L258.945,488.155z"/>
		<path fill="#414042" d="M271.528,478.76l3.999,0.201l-0.161,3.199l-1.82,4.318l-1.6-0.08l1.021-4.358l-1.6-0.081L271.528,478.76z"
			/>
		<path fill="#414042" d="M311.509,491.909c-0.045-0.531-0.186-1.002-0.421-1.41c-0.235-0.409-0.536-0.752-0.901-1.028
			c-0.365-0.277-0.784-0.479-1.257-0.607c-0.473-0.127-0.976-0.168-1.508-0.123l-16.157,1.373l0.771,9.076l-3.989,0.339
			l-1.694-19.948l22.94-1.948c0.691-0.059,1.352,0.032,1.981,0.273s1.192,0.586,1.686,1.032c0.493,0.447,0.896,0.979,1.21,1.595
			c0.313,0.617,0.5,1.271,0.559,1.962c0.077,0.905-0.059,1.79-0.407,2.657c-0.349,0.866-0.853,1.596-1.512,2.188
			c0.746,0.433,1.362,1.022,1.848,1.771c0.486,0.75,0.767,1.569,0.842,2.46l0.475,5.586l-3.989,0.339L311.509,491.909z
			 M307.43,486.932c0.504-0.056,0.97-0.206,1.398-0.45c0.428-0.244,0.79-0.549,1.087-0.916s0.52-0.784,0.667-1.252
			c0.148-0.468,0.2-0.962,0.156-1.48c-0.045-0.531-0.186-1.002-0.422-1.41c-0.235-0.409-0.535-0.752-0.9-1.029
			c-0.365-0.276-0.784-0.479-1.257-0.606c-0.474-0.127-0.976-0.168-1.508-0.123l-16.157,1.372l0.617,7.281L307.43,486.932z"/>
		<path fill="#414042" d="M340.031,491.666c-0.884,0.256-1.771,0.387-2.657,0.394c-0.888,0.007-1.747-0.096-2.579-0.307
			s-1.624-0.523-2.377-0.938c-0.752-0.414-1.439-0.917-2.062-1.508c-0.622-0.592-1.168-1.264-1.636-2.018s-0.83-1.573-1.086-2.458
			s-0.388-1.771-0.394-2.657c-0.007-0.888,0.095-1.747,0.306-2.579s0.523-1.624,0.938-2.377c0.415-0.752,0.918-1.438,1.509-2.062
			c0.591-0.622,1.263-1.168,2.017-1.636c0.754-0.469,1.573-0.83,2.458-1.086l17.309-5.007l0.5,1.73l-14.808,4.284
			c-1.026,0.296-1.936,0.754-2.729,1.372c-0.793,0.619-1.447,1.347-1.963,2.184s-0.874,1.746-1.076,2.729s-0.218,1.984-0.048,3.005
			l22.655-6.554l0.5,1.731l-22.654,6.553c0.401,0.954,0.95,1.796,1.647,2.524c0.697,0.729,1.485,1.308,2.366,1.733
			s1.821,0.688,2.822,0.788c1.002,0.1,2.015,0.001,3.041-0.296l14.808-4.283l0.501,1.73L340.031,491.666z"/>
		<path fill="#414042" d="M394.221,444.78l3.598-2.54l21.359,9.426l-3.598,2.541l-7.476-3.3l-10.581,7.472l0.721,8.067l-1.962,1.386
			L394.221,444.78z M397.334,456.306l8.848-6.246l-9.786-4.315L397.334,456.306z"/>
		<path fill="#414042" d="M460.128,397.595c-0.434-0.311-0.883-0.51-1.347-0.596c-0.463-0.086-0.919-0.081-1.367,0.017
			c-0.447,0.098-0.873,0.285-1.277,0.563c-0.404,0.276-0.762,0.632-1.072,1.065l-9.452,13.177l7.401,5.31l-2.334,3.253
			l-16.267-11.669l13.419-18.707c0.404-0.564,0.903-1.007,1.496-1.329c0.592-0.322,1.219-0.526,1.879-0.611
			c0.66-0.084,1.327-0.046,1.999,0.116s1.29,0.445,1.854,0.85c0.737,0.529,1.322,1.207,1.755,2.035s0.66,1.685,0.682,2.57
			c0.813-0.286,1.663-0.371,2.548-0.254s1.69,0.437,2.417,0.958l4.555,3.268l-2.334,3.253L460.128,397.595z M453.693,397.463
			c0.285-0.419,0.474-0.871,0.566-1.355c0.092-0.483,0.096-0.957,0.01-1.422c-0.086-0.464-0.259-0.904-0.519-1.32
			s-0.602-0.776-1.024-1.08c-0.434-0.311-0.883-0.51-1.347-0.596s-0.919-0.08-1.367,0.017c-0.447,0.098-0.873,0.285-1.277,0.563
			c-0.404,0.276-0.762,0.632-1.073,1.065l-9.451,13.177l5.938,4.259L453.693,397.463z"/>
		<path fill="#414042" d="M478.5,375.709c-0.379,0.84-0.854,1.6-1.424,2.279s-1.205,1.268-1.905,1.765s-1.451,0.897-2.255,1.201
			s-1.632,0.501-2.485,0.592s-1.719,0.069-2.597-0.063c-0.877-0.132-1.735-0.388-2.575-0.767c-0.839-0.379-1.599-0.854-2.278-1.424
			s-1.269-1.205-1.765-1.905c-0.497-0.7-0.897-1.451-1.201-2.255c-0.304-0.803-0.501-1.632-0.592-2.485s-0.07-1.719,0.063-2.597
			c0.132-0.877,0.388-1.735,0.767-2.575l3.293-7.299c0.565-1.253,1.34-2.328,2.322-3.225c0.983-0.896,2.07-1.569,3.262-2.021
			c1.191-0.45,2.452-0.665,3.782-0.643c1.33,0.021,2.622,0.314,3.875,0.88c0.839,0.379,1.599,0.854,2.278,1.424
			c0.681,0.57,1.269,1.206,1.766,1.905c0.496,0.7,0.896,1.452,1.2,2.255c0.304,0.804,0.502,1.632,0.592,2.485
			c0.091,0.854,0.07,1.72-0.063,2.597c-0.132,0.877-0.388,1.735-0.767,2.575L478.5,375.709z M467.07,376.702
			c1.034,0.467,2.095,0.711,3.184,0.733c1.088,0.022,2.122-0.151,3.102-0.522c0.979-0.37,1.87-0.924,2.671-1.661
			c0.802-0.736,1.435-1.622,1.901-2.656l1.153-2.555c0.466-1.033,0.711-2.095,0.733-3.183s-0.152-2.122-0.522-3.103
			c-0.371-0.979-0.925-1.869-1.661-2.671c-0.736-0.801-1.622-1.435-2.656-1.901c-1.034-0.466-2.095-0.711-3.184-0.733
			c-1.088-0.022-2.121,0.152-3.102,0.522c-0.979,0.37-1.87,0.924-2.671,1.661c-0.801,0.736-1.435,1.622-1.901,2.656l-1.152,2.555
			c-0.467,1.034-0.711,2.095-0.733,3.183c-0.022,1.089,0.151,2.122,0.521,3.103c0.371,0.979,0.925,1.87,1.661,2.671
			S466.036,376.235,467.07,376.702z"/>
		<path fill="#414042" d="M471.1,340.789l5.126-22.444c0.154-0.677,0.436-1.279,0.844-1.81c0.409-0.529,0.897-0.962,1.467-1.298
			c0.57-0.335,1.189-0.56,1.858-0.674c0.67-0.114,1.343-0.094,2.02,0.061c0.664,0.151,1.248,0.412,1.752,0.78
			c0.505,0.368,0.917,0.812,1.236,1.329c0.32,0.519,0.535,1.091,0.646,1.719c0.109,0.628,0.104,1.27-0.02,1.926
			c0.175-0.645,0.448-1.226,0.819-1.743c0.372-0.518,0.813-0.94,1.326-1.269c0.514-0.327,1.077-0.548,1.691-0.661
			c0.614-0.112,1.254-0.093,1.917,0.059c0.677,0.154,1.292,0.429,1.846,0.821c0.554,0.394,1.014,0.865,1.381,1.414
			c0.368,0.55,0.62,1.151,0.759,1.806c0.138,0.655,0.13,1.32-0.025,1.997l-5.125,22.444L471.1,340.789z M473.748,337.287
			l7.025,1.604l3.61-15.809c0.119-0.521,0.132-1.028,0.04-1.521c-0.093-0.493-0.268-0.943-0.523-1.352
			c-0.256-0.407-0.589-0.761-1-1.06c-0.411-0.3-0.87-0.507-1.378-0.623c-0.521-0.119-1.008-0.127-1.462-0.025
			c-0.455,0.102-0.862,0.285-1.225,0.552s-0.669,0.606-0.922,1.021c-0.252,0.415-0.438,0.883-0.557,1.403L473.748,337.287z
			 M482.726,339.337l7.026,1.604l3.61-15.809c0.118-0.521,0.154-1.022,0.107-1.505c-0.047-0.483-0.176-0.924-0.387-1.32
			c-0.21-0.397-0.498-0.74-0.863-1.029s-0.809-0.492-1.329-0.611c-0.507-0.116-1.011-0.128-1.511-0.037s-0.954,0.265-1.361,0.521
			s-0.76,0.586-1.058,0.991c-0.298,0.404-0.506,0.866-0.625,1.387L482.726,339.337z"/>
		<path fill="#414042" d="M498.936,293.414c-0.024,0.92-0.169,1.805-0.432,2.651c-0.264,0.848-0.622,1.636-1.076,2.364
			c-0.453,0.729-0.991,1.389-1.615,1.979c-0.623,0.591-1.312,1.094-2.063,1.507s-1.559,0.729-2.419,0.945
			c-0.86,0.218-1.751,0.313-2.672,0.288c-0.92-0.024-1.804-0.169-2.651-0.432c-0.848-0.264-1.636-0.622-2.364-1.076
			c-0.729-0.453-1.388-0.992-1.979-1.615c-0.591-0.624-1.093-1.312-1.507-2.063c-0.413-0.753-0.729-1.559-0.945-2.419
			s-0.313-1.751-0.288-2.672l0.217-8.005c0.037-1.374,0.336-2.664,0.896-3.871c0.56-1.206,1.302-2.248,2.228-3.124
			c0.925-0.876,2.005-1.561,3.239-2.055c1.235-0.494,2.54-0.722,3.914-0.685c0.921,0.025,1.805,0.169,2.652,0.433
			c0.847,0.263,1.635,0.622,2.363,1.075c0.729,0.454,1.389,0.992,1.979,1.616c0.591,0.624,1.093,1.312,1.506,2.063
			c0.414,0.752,0.729,1.559,0.946,2.419c0.217,0.86,0.313,1.751,0.288,2.672L498.936,293.414z M488.778,298.746
			c1.134,0.03,2.207-0.153,3.219-0.554c1.013-0.399,1.898-0.96,2.659-1.681c0.761-0.72,1.368-1.575,1.822-2.563
			c0.454-0.989,0.696-2.051,0.727-3.185l0.076-2.802c0.031-1.134-0.153-2.207-0.554-3.22c-0.399-1.012-0.96-1.898-1.68-2.659
			c-0.721-0.76-1.575-1.368-2.564-1.822s-2.051-0.696-3.185-0.727s-2.207,0.154-3.22,0.554c-1.012,0.4-1.898,0.959-2.659,1.68
			c-0.76,0.721-1.367,1.575-1.821,2.564s-0.696,2.051-0.728,3.185l-0.076,2.802c-0.03,1.134,0.154,2.207,0.554,3.22
			c0.4,1.012,0.96,1.898,1.681,2.659c0.72,0.76,1.575,1.367,2.563,1.821C486.582,298.473,487.645,298.715,488.778,298.746z"/>
		<path fill="#414042" d="M478.797,265.508l-4.516-27.662l1.778-0.29l1.936,11.854l17.979-2.936l0.646,3.952l-17.98,2.936
			l1.936,11.855L478.797,265.508z"/>
	</g>
	<g>
		<polygon fill="#E6E7E8" points="344.679,211.285 329,249.218 297.648,256.727 307.513,232.864 313.325,218.794 		"/>
		<polygon fill="#808285" points="313.325,218.794 307.513,232.864 297.648,256.727 179.42,189.547 174.92,186.991 174.918,186.991 
			174.918,186.99 172.834,159.21 171.449,140.747 206.5,102.042 229.171,126.819 		"/>
		<polygon fill="#D1D3D4" points="344.679,211.285 313.325,218.794 229.171,126.819 206.5,102.042 206.5,102.039 262.711,89.781 
			262.711,89.784 		"/>
		<path fill="none" d="M206.501,102.042"/>
		<g>
			<path fill="#939598" d="M179.42,189.547l-56.097,36.062c-1.036,0.478-2.143,0.665-3.288,0.521
				c-2.682-0.339-5.101-2.445-6.886-5.626c-0.897-1.594-1.633-3.46-2.168-5.503c-0.658-2.519-1.006-5.311-0.959-8.212
				c0.124-7.958,3.169-14.343,7.287-16.225l55.524-31.353l2.084,27.78v0.001h0.002L179.42,189.547z"/>
		</g>
		<path fill="#808285" d="M171.256,272.394c-0.863,5.581-4.498,9.454-8.537,8.839c-0.878-0.133-1.709-0.472-2.472-0.975
			c-3.027-1.997-4.986-6.619-4.64-11.657c0.438-6.311,4.327-10.887,8.692-10.218c0.879,0.133,1.707,0.472,2.47,0.973
			c2.4,1.584,4.129,4.815,4.57,8.598c-2.961-0.442-5.445-0.358-5.986-0.335c-1.208,0.057-2.141,1.08-2.086,2.289
			c0.055,1.208,1.08,2.144,2.288,2.09C166.761,271.943,168.971,272,171.256,272.394z"/>
		<path fill="#939598" d="M166.77,259.355c-0.763-0.5-1.591-0.84-2.47-0.973c-4.365-0.669-8.254,3.907-8.692,10.218
			c-0.327,4.747,1.394,9.125,4.126,11.288l-41.42-29.799c-3.027-1.998-4.988-6.619-4.64-11.659c0.039-0.573,0.107-1.135,0.203-1.678
			c0.316-1.819,0.93-3.448,1.758-4.785c1.631-2.649,4.094-4.158,6.729-3.754c0.878,0.133,1.709,0.471,2.472,0.973L166.77,259.355z"
			/>
		<path fill="#D1D3D4" d="M195.636,301.874c0,1.289-0.285,2.514-0.885,3.621c-2.987,5.505-12.636,6.041-21.549,1.203
			c-7.117-3.867-11.612-9.992-11.612-15.104c0-1.291,0.285-2.513,0.886-3.623c2.654-4.886,10.556-5.858,18.533-2.624
			c-0.274,2.518-1.125,5.545-2.727,9.335c-0.469,1.115,0.052,2.401,1.168,2.87c0.278,0.118,0.566,0.173,0.851,0.173
			c0.854,0,1.667-0.502,2.021-1.339c1.407-3.33,2.343-6.289,2.81-8.981C191.606,291.282,195.636,297.033,195.636,301.874z"/>
		<path fill="#939598" d="M195.143,304.644c0.024-0.06,0.046-0.12,0.068-0.182c-1.966,6.633-19.695,66.957-19.899,67.57
			c-0.109,0.332-0.248,0.652-0.416,0.963c-2.259,4.163-9.096,4.914-15.892,2.001c-0.69-0.295-1.381-0.629-2.065-1.001
			c-0.628-0.342-1.231-0.703-1.811-1.087c-4.872-3.207-7.868-7.692-7.868-11.5l14.33-69.814c0,0.559,0.054,1.131,0.16,1.711
			c0.028,0.162,0.063,0.329,0.101,0.496c0.02,0.083,0.039,0.166,0.061,0.25c0.042,0.169,0.09,0.335,0.14,0.504
			c0.202,0.673,0.47,1.35,0.799,2.03c0.123,0.253,0.254,0.508,0.395,0.762c0.094,0.17,0.19,0.338,0.292,0.507
			c0.1,0.168,0.206,0.337,0.313,0.507c0.109,0.168,0.221,0.335,0.335,0.503c0.059,0.084,0.115,0.167,0.174,0.251
			c0.594,0.835,1.278,1.656,2.041,2.454c0.151,0.157,0.307,0.316,0.467,0.476c0.795,0.783,1.673,1.542,2.621,2.265
			c0.188,0.141,0.382,0.284,0.577,0.425c0.195,0.14,0.392,0.278,0.594,0.417c0.101,0.064,0.202,0.133,0.305,0.203
			c0.203,0.133,0.409,0.267,0.617,0.398h0.003c0.208,0.13,0.421,0.258,0.634,0.388c0.001-0.001,0.001-0.001,0.001,0
			c0.323,0.19,0.651,0.375,0.984,0.558c0.764,0.413,1.533,0.79,2.305,1.129c0,0,0-0.003,0.003,0
			c0.898,0.392,1.799,0.729,2.693,1.016c0,0,0,0,0.002,0c0.254,0.081,0.509,0.158,0.763,0.232h0.002
			c0.254,0.073,0.506,0.14,0.758,0.207h0.002c0.252,0.063,0.503,0.121,0.753,0.181h0.002c0.25,0.052,0.5,0.105,0.748,0.152
			c0.374,0.07,0.745,0.132,1.112,0.184c0.367,0.05,0.728,0.092,1.087,0.125c3.296,0.292,6.262-0.221,8.451-1.519
			c0.187-0.111,0.369-0.229,0.546-0.354c0.087-0.058,0.176-0.122,0.261-0.188c0.171-0.128,0.335-0.263,0.494-0.405
			c0.631-0.562,1.157-1.216,1.562-1.962c0.038-0.069,0.075-0.14,0.11-0.21c0.07-0.14,0.135-0.28,0.194-0.426
			C195.086,304.79,195.114,304.716,195.143,304.644z"/>
		<path fill="#939598" d="M195.215,304.443c0.001-0.007,0.004-0.014,0.006-0.019C195.224,304.422,195.222,304.428,195.215,304.443z"
			/>
		<path fill="#939598" d="M195.391,303.861c0,0,0,0.002,0,0.004c-0.009,0.038-0.02,0.074-0.031,0.111
			c-0.02,0.076-0.041,0.151-0.066,0.227c-0.021,0.073-0.046,0.146-0.072,0.222c0.085-0.288,0.14-0.47,0.16-0.535
			c0.002-0.007,0.004-0.013,0.004-0.016C195.388,303.865,195.391,303.861,195.391,303.861z"/>
		<path fill="#414042" d="M185.132,287.404c-0.467,2.692-1.403,5.651-2.81,8.981c-0.354,0.837-1.166,1.339-2.021,1.339
			c-0.285,0-0.572-0.055-0.851-0.173c-1.116-0.469-1.637-1.755-1.168-2.87c1.602-3.79,2.452-6.817,2.727-9.335
			c0.471-4.355-0.787-7.195-2.908-9.838c-1.395-1.738-4.171-2.658-6.845-3.115c-2.285-0.394-4.495-0.45-5.7-0.396
			c-1.208,0.054-2.233-0.882-2.288-2.09c-0.055-1.209,0.878-2.232,2.086-2.289c0.541-0.023,3.025-0.107,5.986,0.335
			c3.542,0.529,7.765,1.803,10.18,4.813C184.947,277.038,186.142,281.588,185.132,287.404z"/>
		<g>
			<path fill="#414042" d="M115.635,231.967c-0.828,1.337-1.442,2.966-1.758,4.785c-3.951-4.45-5.843-9.005-5.636-13.595
				c0.146-3.241,1.328-5.992,2.742-8.157c0.535,2.043,1.271,3.909,2.168,5.503c-0.294,0.897-0.487,1.861-0.531,2.884
				C112.501,226.191,113.511,229.062,115.635,231.967z"/>
			<path fill="#414042" d="M113.877,236.752c0.316-1.819,0.93-3.448,1.758-4.785L113.877,236.752z"/>
		</g>
	</g>
	<path fill="#BE1E2D" d="M328.601,235.806c-2.128,5.714-8.329,10.385-12.316,8.899c-3.985-1.486-4.249-6.08-2.12-11.793
		c2.129-5.713,8.329-10.382,12.316-8.896C330.466,225.501,330.729,230.093,328.601,235.806z"/>
	<radialGradient id="SVGID_2_" cx="321.3828" cy="234.3604" r="19.703" gradientUnits="userSpaceOnUse">
		<stop  offset="0" style="stop-color:#FFFFFF"/>
		<stop  offset="1" style="stop-color:#BE1E2D"/>
	</radialGradient>
	<path opacity="0.8" fill="url(#SVGID_2_)" d="M328.601,235.806c-2.128,5.714-8.329,10.385-12.316,8.899
		c-3.985-1.486-4.249-6.08-2.12-11.793c2.129-5.713,8.329-10.382,12.316-8.896C330.466,225.501,330.729,230.093,328.601,235.806z"/>
	<g>
		<path fill="#414042" d="M159.179,374.731"/>
		<path fill="#414042" d="M448.58,238.279c7.285-9.327,11.13-17.998,12.093-27.285c0.71-6.828,0.597-12.462-0.349-17.23
			c-1.119-5.647-3.378-10.143-6.91-13.747c-4.146-4.231-9.894-7.073-17.571-8.689c-7.958-1.675-17.787-1.991-30.053-0.967
			c-8.688,0.725-14.277,3.676-16.618,8.774c-6.155,13.406,11.826,38.232,30.867,64.516c2.532,3.497,5.089,7.025,7.583,10.529
			c-2.326,2.228-4.756,4.514-7.272,6.89c-6.432,6.065-13.083,12.334-20.14,19.54l3.132,3.067
			c6.994-7.141,13.614-13.382,20.016-19.417c2.354-2.221,4.631-4.368,6.824-6.464c6.801,9.685,12.935,19.053,16.685,26.993
			c4.044,8.561,4.349,19.467,0.908,32.415c-2.979,11.202-8.668,23.702-16.912,37.154c-15.467,25.242-35.282,46.242-44.414,53.094
			c-36.621,27.477-53.014,18.618-70.367,9.237c-8.333-4.505-16.947-9.159-27.827-9.673c-12.601-0.6-22.157,1.314-29.212,5.849
			c-6.276,4.032-9.776,9.6-12.863,14.513c-4.011,6.376-7.474,11.884-16.022,13.466c-5.591,1.037-19.616-3.011-35.727-10.308
			c-16.04-7.265-30.514-16.057-36.875-22.401c-5.201-5.191-6.564-12.29-4.057-21.103c1.714-6.016,4.742-10.87,5.506-12.035
			c-0.69-0.295-1.381-0.629-2.065-1.001c-0.628-0.342-1.231-0.703-1.811-1.087c-1.118,1.748-4.043,6.66-5.812,12.808
			c-2.982,10.363-1.203,19.187,5.144,25.52c6.803,6.79,21.426,15.716,38.162,23.295c5.955,2.697,24.858,10.853,35.549,10.853
			c1.006,0,1.942-0.072,2.786-0.231c10.434-1.93,14.754-8.801,18.932-15.444c6.041-9.605,12.286-19.54,38.157-18.316
			c9.883,0.471,17.688,4.69,25.949,9.152c8.838,4.779,17.979,9.72,29.81,9.725h0.02c6.354,0,12.877-1.403,19.94-4.286
			c7.812-3.191,16.093-8.104,25.314-15.026c11.137-8.356,31.209-30.954,45.521-54.308c13.152-21.463,26.646-51.678,16.231-73.73
			c-3.956-8.376-10.383-18.152-17.457-28.198C439.201,249.052,444.336,243.707,448.58,238.279z M430.811,251.1
			c-2.382-3.34-4.811-6.693-7.222-10.02c-8.865-12.239-18.031-24.893-24.074-35.709c-6.486-11.614-8.564-19.598-6.358-24.409
			c1.631-3.553,6.005-5.649,12.999-6.233c4.521-0.377,8.717-0.569,12.593-0.569c15.307,0,25.68,2.949,31.535,8.926
			c5.556,5.665,7.412,14.132,6.03,27.455C454.759,225.528,445.024,237.229,430.811,251.1z"/>
	</g>
	<g>
		<polygon fill="#6D6E71" points="391.629,335.373 389.315,345.176 339.083,311.013 341.404,301.21 		"/>
		<g>
			<g>
				<polygon fill="#A7A9AC" points="308.955,349.87 307.262,350.756 304.246,352.349 291.305,359.149 291.051,350.459 
					300.529,344.565 301.795,343.776 305.042,341.75 306.023,343.771 307.896,347.67 				"/>
				<polygon fill="#D1D3D4" points="305.042,341.75 301.795,343.776 300.529,344.565 291.051,350.459 289.774,349.63 
					285.73,346.987 298.073,338.052 302.454,340.377 303.695,341.037 304.285,341.348 				"/>
				<polygon fill="#6D6E71" points="291.053,350.462 291.309,359.149 283.094,353.533 285.73,346.989 289.774,349.625 				"/>
				<polygon fill="#D1D3D4" points="323.195,329.854 311.495,338.224 310.094,337.328 309.456,336.934 305.944,334.695 
					317.518,326.91 321.652,329.057 				"/>
				<path fill="#6D6E71" d="M306.238,340.024c-0.1,0.076-0.201,0.139-0.303,0.205C306.028,340.141,306.129,340.07,306.238,340.024z"
					/>
				<path fill="#6D6E71" d="M307.592,342.711c-0.006,0.006-0.011,0.014-0.017,0.02c-0.1,0.089-0.199,0.161-0.313,0.207
					C307.372,342.859,307.479,342.789,307.592,342.711z"/>
				<polygon fill="#A7A9AC" points="329.817,334.594 310.142,349.101 311.25,340.163 311.495,338.224 323.195,329.854 
					324.358,330.691 				"/>
				<path fill="#6D6E71" d="M311.495,338.224l-0.245,1.939l-1.108,8.938l-2.245-1.431l-1.873-3.898
					c0.409-0.277,0.823-0.556,1.238-0.834c0.114-0.046,0.214-0.118,0.313-0.207c0.006-0.006,0.011-0.014,0.017-0.02
					c0.327-0.311,0.519-0.817,0.461-1.369c-0.092-0.86-0.747-1.492-1.464-1.417c-0.048,0.006-0.083,0.011-0.12,0.019
					c-0.08,0.021-0.162,0.049-0.23,0.081c-0.109,0.046-0.21,0.116-0.303,0.205c-0.004,0.006-0.01,0.006-0.016,0.014
					c-0.548,0.376-1.092,0.739-1.635,1.104l-0.59-0.311l-1.241-0.66l3.49-5.682l3.512,2.238l0.638,0.395L311.495,338.224z"/>
				<polygon fill="#A7A9AC" points="349.581,318.865 331.128,333.488 332.605,324.673 343.058,316.54 				"/>
				<path fill="#6D6E71" d="M326.413,324.894c-0.133,0.116-0.263,0.236-0.39,0.346c0.042-0.058,0.09-0.111,0.145-0.159
					C326.243,324.999,326.327,324.942,326.413,324.894z"/>
				<path fill="#6D6E71" d="M328.095,327.396c-0.07,0.134-0.161,0.244-0.265,0.346c-0.119,0.115-0.253,0.202-0.402,0.253
					C327.65,327.798,327.876,327.599,328.095,327.396z"/>
				<path fill="#6D6E71" d="M340.235,313.341c-0.051,0.034-0.105,0.078-0.162,0.119C340.104,313.401,340.16,313.36,340.235,313.341z
					"/>
				<path fill="#6D6E71" d="M342.883,315.058c0.001,0.007,0.001,0.007,0.001,0.007l-0.006,0.007c-0.035,0.057-0.097,0.1-0.178,0.126
					C342.762,315.143,342.821,315.102,342.883,315.058z"/>
				<polygon fill="#D1D3D4" points="343.058,316.54 332.605,324.673 332.342,324.503 331.718,324.102 329.11,322.441 
					328.177,321.838 325.976,320.428 336.162,312.561 338.494,313.909 339.09,314.249 339.09,314.254 339.097,314.254 
					341.857,315.852 				"/>
				<path fill="#6D6E71" d="M332.605,324.673l-1.478,8.815l-5.758-3.679c0.685-0.595,1.37-1.202,2.058-1.814
					c0.149-0.051,0.283-0.138,0.402-0.253c0.104-0.102,0.194-0.212,0.265-0.346c0.176-0.313,0.262-0.706,0.216-1.126
					c-0.097-0.909-0.764-1.589-1.492-1.51c-0.041,0.003-0.076,0.008-0.118,0.022c-0.105,0.024-0.197,0.059-0.287,0.11
					c-0.086,0.049-0.17,0.105-0.245,0.187c-0.055,0.048-0.103,0.102-0.145,0.159c-1.095,0.987-2.191,1.956-3.281,2.894l-1.248-0.799
					l4.481-6.906l2.201,1.41l0.934,0.604l2.607,1.66l0.624,0.401L332.605,324.673z"/>
				<path fill="#58595B" d="M349.581,318.865l-6.523-2.325l-1.2-0.688l-2.761-1.598h-0.007v-0.005l-0.596-0.34l-2.332-1.349
					l3.784,0.157l0.6,0.379c-0.105,0.078-0.205,0.161-0.311,0.244c-0.075,0.02-0.132,0.061-0.162,0.119c0,0,0,0.006-0.005,0.006
					c-0.005,0.013-0.01,0.024-0.02,0.045c-0.021,0.091-0.002,0.198,0.078,0.333c0.149,0.29,0.542,0.646,1.047,0.94
					c0.606,0.342,1.2,0.502,1.508,0.42c0.006,0,0.013-0.007,0.019-0.007c0.081-0.026,0.143-0.069,0.178-0.126l0.006-0.007
					c0,0,0,0-0.001-0.007c0.111-0.083,0.228-0.169,0.34-0.252L349.581,318.865z"/>
			</g>
			<g>
				<path fill="#F1C6DD" d="M308.053,341.342c0.058,0.552-0.134,1.059-0.461,1.369c-0.113,0.078-0.22,0.148-0.33,0.227
					c-0.415,0.278-0.829,0.557-1.238,0.834l-0.981-2.021l-0.757-0.402c0.543-0.365,1.087-0.729,1.635-1.104
					c0.006-0.008,0.012-0.008,0.016-0.014c0.102-0.066,0.203-0.129,0.303-0.205c0.068-0.032,0.15-0.06,0.23-0.081
					c0.037-0.008,0.072-0.013,0.12-0.019C307.306,339.85,307.961,340.481,308.053,341.342z"/>
				<path fill="#F1C6DD" d="M306.022,343.774"/>
				<path fill="#F1C6DD" d="M328.311,326.271c0.046,0.42-0.04,0.813-0.216,1.126c-0.219,0.202-0.444,0.401-0.667,0.599
					c-0.688,0.612-1.373,1.22-2.058,1.814c-0.337,0.299-0.677,0.594-1.012,0.882l-1.163-0.837l-1.543-0.798
					c0.371-0.295,0.729-0.604,1.09-0.924c1.09-0.938,2.187-1.906,3.281-2.894c0.127-0.109,0.257-0.229,0.39-0.346
					c0.09-0.052,0.182-0.086,0.287-0.11c0.042-0.015,0.077-0.02,0.118-0.022C327.547,324.682,328.214,325.361,328.311,326.271z"/>
				<path fill="#F1C6DD" d="M347.794,310.782c0.058,0.545-0.129,1.05-0.455,1.368c-0.189,0.09-0.382,0.195-0.573,0.305
					c-0.912,0.512-1.865,1.135-2.854,1.846c-0.228,0.161-0.456,0.329-0.689,0.505c-0.112,0.083-0.229,0.169-0.34,0.252
					c0.001,0.007,0.001,0.007,0.001,0.007c-0.063,0.037-0.122,0.085-0.184,0.133c-0.006,0-0.013,0.007-0.019,0.007
					c-0.308,0.082-0.901-0.078-1.508-0.42c-0.505-0.295-0.897-0.65-1.047-0.94c-0.08-0.135-0.099-0.242-0.078-0.333
					c0.01-0.021,0.015-0.032,0.02-0.045c0.005,0,0.005-0.006,0.005-0.006c0.057-0.041,0.111-0.085,0.162-0.119
					c0.105-0.083,0.205-0.166,0.311-0.244c0.254-0.195,0.505-0.388,0.755-0.571c1.517-1.144,2.983-2.127,4.388-2.877
					c0.175-0.098,0.351-0.187,0.523-0.272c0.04-0.011,0.075-0.014,0.116-0.017C347.047,309.283,347.702,309.919,347.794,310.782z"/>
				<path fill="#F1C6DD" d="M302.243,342.692"/>
				<path fill="#F1C6DD" d="M304.285,341.348"/>
			</g>
		</g>
		<g>
			<g>
				<polygon fill="#A7A9AC" points="317.67,362.324 310.596,366.045 300.019,371.605 299.764,362.915 309.234,357.014 
					310.507,356.226 313.754,354.2 314.731,356.228 316.608,360.12 317.168,361.278 				"/>
				<polygon fill="#D1D3D4" points="313.754,354.2 310.507,356.226 309.234,357.014 299.764,362.915 298.486,362.078 
					294.446,359.441 304.235,352.354 304.246,352.349 306.785,350.507 307.262,350.756 311.166,352.824 312.407,353.487 
					312.997,353.802 				"/>
				<polygon fill="#6D6E71" points="299.764,362.914 300.019,371.603 291.805,365.986 294.442,359.441 298.486,362.078 				"/>
				<polygon fill="#D1D3D4" points="331.141,342.15 320.209,350.68 318.8,349.784 318.168,349.382 314.657,347.152 325.472,339.207 
					329.604,341.354 				"/>
				<path fill="#6D6E71" d="M314.855,352.537c-0.083,0.062-0.172,0.127-0.262,0.184C314.675,352.64,314.757,352.583,314.855,352.537
					z"/>
				<path fill="#6D6E71" d="M315.863,355.466c0.111-0.078,0.225-0.15,0.335-0.229C316.101,355.339,315.987,355.41,315.863,355.466z"
					/>
				<polygon fill="#6D6E71" points="319.059,359.913 318.854,361.555 317.762,360.855 				"/>
				<polygon fill="#A7A9AC" points="337.765,346.89 322.553,358.691 318.854,361.555 319.059,359.913 319.964,352.613 
					320.209,350.68 331.141,342.15 332.305,342.987 				"/>
				<path fill="#6D6E71" d="M320.209,350.68l-0.245,1.934l-0.905,7.3l-1.297,0.942l-1.153-0.735l-1.877-3.893
					c0.37-0.248,0.739-0.499,1.107-0.753c0.013-0.002,0.017-0.008,0.024-0.009c0.124-0.056,0.237-0.127,0.335-0.229
					c0.006,0,0.006-0.006,0.011-0.012c0.339-0.307,0.532-0.813,0.473-1.37c-0.09-0.861-0.748-1.494-1.471-1.418l-0.118,0.014
					c-0.082,0.021-0.161,0.047-0.237,0.086c-0.099,0.046-0.181,0.103-0.262,0.184c-0.011,0.006-0.016,0.012-0.029,0.021
					c-0.519,0.354-1.045,0.71-1.567,1.06l-0.59-0.314l-1.241-0.663l3.491-5.672l3.511,2.229l0.632,0.402L320.209,350.68z"/>
				<polygon fill="#A7A9AC" points="361.565,327.476 339.074,345.78 340.551,336.964 355.037,325.157 				"/>
				<path fill="#6D6E71" d="M334.393,337.155c-0.209,0.191-0.423,0.381-0.631,0.571c0.072-0.12,0.157-0.226,0.256-0.313
					C334.131,337.291,334.254,337.213,334.393,337.155z"/>
				<path fill="#6D6E71" d="M335.859,339.85c-0.052,0.078-0.115,0.15-0.181,0.218c-0.087,0.088-0.188,0.157-0.289,0.205
					C335.547,340.136,335.706,339.992,335.859,339.85z"/>
				<path fill="#6D6E71" d="M352.306,321.876c-0.057,0.042-0.111,0.083-0.165,0.126C352.17,321.944,352.227,321.902,352.306,321.876
					z"/>
				<path fill="#6D6E71" d="M354.943,323.611c-0.006,0.002-0.005,0.008-0.005,0.008c-0.03,0.057-0.085,0.092-0.161,0.119
					C354.832,323.689,354.887,323.648,354.943,323.611z"/>
				<polygon fill="#D1D3D4" points="355.037,325.157 340.551,336.964 340.294,336.799 339.663,336.393 337.056,334.73 
					336.123,334.134 333.922,332.725 348.141,321.177 350.479,322.52 351.066,322.866 351.072,322.864 353.836,324.461 				"/>
				<path fill="#6D6E71" d="M340.551,336.964l-1.477,8.816l-5.752-3.675c0.69-0.602,1.376-1.214,2.067-1.833
					c0.102-0.048,0.202-0.117,0.289-0.205c0.065-0.067,0.129-0.14,0.181-0.218c0.229-0.322,0.351-0.768,0.3-1.25
					c-0.097-0.913-0.764-1.585-1.493-1.509c-0.04,0.005-0.077,0.008-0.117,0.019c-0.053,0.012-0.1,0.029-0.15,0.046c0,0,0,0-0.006,0
					c-0.139,0.058-0.262,0.136-0.375,0.258c-0.099,0.088-0.184,0.193-0.256,0.313c-1.023,0.92-2.05,1.825-3.072,2.702l-1.248-0.798
					l4.48-6.906l2.201,1.409l0.933,0.597l2.607,1.662l0.631,0.406L340.551,336.964z"/>
				<path fill="#58595B" d="M361.565,327.476l-6.528-2.318l-1.201-0.696l-2.764-1.597l-0.006,0.002l-0.587-0.347l-2.339-1.343
					l3.789,0.157l0.594,0.375c-0.073,0.056-0.14,0.104-0.21,0.167c-0.008,0-0.008,0-0.008,0c-0.079,0.026-0.136,0.068-0.165,0.126
					c-0.006,0.006-0.006,0.006-0.005,0.012c-0.011,0.014-0.017,0.025-0.021,0.039c-0.024,0.093-0.001,0.203,0.078,0.34
					c0.145,0.284,0.537,0.646,1.048,0.938c0.62,0.36,1.236,0.505,1.537,0.407c0.076-0.027,0.131-0.063,0.161-0.119
					c0,0-0.001-0.006,0.005-0.008c0.091-0.068,0.174-0.132,0.257-0.195L361.565,327.476z"/>
			</g>
			<g>
				<path fill="#F1C6DD" d="M316.682,353.855c0.06,0.557-0.134,1.063-0.473,1.37c-0.005,0.006-0.005,0.012-0.011,0.012
					c-0.11,0.078-0.224,0.15-0.335,0.229c-0.008,0.001-0.012,0.007-0.024,0.009c-0.368,0.254-0.737,0.505-1.107,0.753l-0.978-2.027
					l-0.757-0.398c0.522-0.35,1.049-0.705,1.567-1.06c0.014-0.01,0.019-0.016,0.029-0.021c0.09-0.057,0.179-0.122,0.262-0.184
					c0.076-0.039,0.155-0.065,0.237-0.086l0.118-0.014C315.934,352.361,316.592,352.994,316.682,353.855z"/>
				<path fill="#F1C6DD" d="M314.734,356.228"/>
				<path fill="#F1C6DD" d="M336.159,338.6c0.051,0.482-0.07,0.928-0.3,1.25c-0.153,0.143-0.313,0.286-0.47,0.423
					c-0.691,0.619-1.377,1.231-2.067,1.833c-0.342,0.295-0.684,0.589-1.018,0.882l-1.164-0.837l-1.536-0.797
					c0.363-0.303,0.724-0.61,1.085-0.925c1.022-0.877,2.049-1.782,3.072-2.702c0.208-0.19,0.422-0.38,0.631-0.571
					c0.006,0,0.006,0,0.006,0c0.051-0.017,0.098-0.034,0.15-0.046c0.04-0.011,0.077-0.014,0.117-0.019
					C335.396,337.015,336.063,337.687,336.159,338.6z"/>
				<path fill="#F1C6DD" d="M359.873,319.346c0.059,0.54-0.118,1.031-0.438,1.348c-0.205,0.105-0.41,0.212-0.613,0.329
					c-0.831,0.467-1.697,1.021-2.597,1.649c-0.334,0.239-0.681,0.485-1.024,0.744c-0.083,0.063-0.166,0.127-0.257,0.195
					c-0.057,0.037-0.111,0.078-0.166,0.127c-0.301,0.098-0.917-0.047-1.537-0.407c-0.511-0.293-0.903-0.654-1.048-0.938
					c-0.079-0.137-0.103-0.247-0.078-0.34c0.005-0.014,0.011-0.025,0.021-0.039c0.062-0.048,0.113-0.096,0.17-0.138c0,0,0,0,0.008,0
					c0.07-0.063,0.137-0.111,0.21-0.167c0.365-0.285,0.727-0.557,1.083-0.816c1.45-1.079,2.854-1.995,4.2-2.708
					c0.148-0.081,0.295-0.158,0.444-0.227c0.047-0.011,0.099-0.023,0.153-0.027C359.127,317.852,359.781,318.484,359.873,319.346z"
					/>
				<path fill="#F1C6DD" d="M310.955,355.146"/>
				<path fill="#F1C6DD" d="M312.996,353.801"/>
			</g>
		</g>
		<g>
			<g>
				<polygon fill="#A7A9AC" points="332.398,369.952 331.586,370.381 330.063,371.179 314.748,379.236 314.494,370.552 
					323.965,364.65 325.23,363.86 328.484,361.837 329.461,363.862 331.338,367.755 331.868,368.857 				"/>
				<polygon fill="#D1D3D4" points="328.484,361.837 325.23,363.86 323.965,364.65 314.494,370.552 313.217,369.715 
					309.169,367.077 310.596,366.045 317.168,361.278 317.762,360.855 319.059,359.913 321.509,358.137 322.553,358.691 
					325.89,360.462 327.131,361.122 327.721,361.433 				"/>
				<polygon fill="#6D6E71" points="314.491,370.547 314.744,379.236 306.532,373.619 309.169,367.075 313.214,369.713 				"/>
				<polygon fill="#D1D3D4" points="346.972,349.364 334.933,358.309 333.529,357.413 332.892,357.019 329.38,354.781 
					341.302,346.418 345.435,348.565 				"/>
				<path fill="#6D6E71" d="M330.484,363.172c0.121-0.079,0.242-0.163,0.365-0.248c-0.012,0.007-0.015,0.019-0.028,0.026
					C330.725,363.045,330.611,363.115,330.484,363.172z"/>
				<polygon fill="#6D6E71" points="333.795,367.447 333.578,369.192 332.42,368.45 				"/>
				<polygon fill="#A7A9AC" points="353.601,354.102 344.007,361.33 333.578,369.192 333.795,367.447 334.688,360.248 
					334.933,358.309 346.972,349.364 348.143,350.199 				"/>
				<path fill="#6D6E71" d="M334.933,358.309l-0.245,1.939l-0.893,7.199l-1.375,1.003l-1.082-0.695l-1.877-3.893
					c0.344-0.229,0.684-0.456,1.023-0.69c0.127-0.057,0.24-0.127,0.337-0.222c0.014-0.008,0.017-0.02,0.028-0.026
					c0.326-0.312,0.514-0.816,0.455-1.361c-0.092-0.862-0.747-1.494-1.471-1.417c-0.041,0.005-0.076,0.008-0.118,0.019
					c-0.088,0.021-0.161,0.048-0.241,0.086c-0.1,0.046-0.182,0.103-0.264,0.177c-0.007,0.007-0.017,0.015-0.023,0.021h-0.005
					c-0.487,0.326-0.975,0.655-1.462,0.984l-0.59-0.311l-1.241-0.66l3.49-5.681l3.512,2.237l0.638,0.395L334.933,358.309z"/>
				<polygon fill="#A7A9AC" points="374.805,336.805 354.91,352.99 356.388,344.177 368.276,334.485 				"/>
				<path fill="#6D6E71" d="M350.546,344.083c-0.197,0.177-0.393,0.358-0.597,0.536c0.066-0.115,0.15-0.219,0.243-0.302
					C350.303,344.212,350.419,344.131,350.546,344.083z"/>
				<path fill="#6D6E71" d="M352.036,346.763c-0.052,0.078-0.116,0.149-0.18,0.216c-0.094,0.089-0.193,0.16-0.304,0.214
					C351.714,347.054,351.878,346.905,352.036,346.763z"/>
				<path fill="#6D6E71" d="M365.487,331.253c-0.072,0.055-0.14,0.105-0.204,0.16c0.003-0.006,0.003-0.019,0.008-0.024
					C365.326,331.324,365.393,331.281,365.487,331.253z"/>
				<path fill="#6D6E71" d="M368.098,333.006c-0.031,0.049-0.088,0.091-0.158,0.118C367.997,333.082,368.047,333.04,368.098,333.006
					z"/>
				<polygon fill="#D1D3D4" points="368.276,334.485 356.388,344.177 356.125,344.012 355.494,343.61 352.894,341.949 
					351.952,341.348 349.76,339.936 361.382,330.501 363.72,331.848 364.31,332.195 364.316,332.193 367.077,333.791 				"/>
				<path fill="#6D6E71" d="M356.388,344.177l-1.478,8.813l-5.758-3.673c0.8-0.697,1.603-1.405,2.4-2.125
					c0.11-0.054,0.21-0.125,0.304-0.214c0.063-0.066,0.128-0.138,0.18-0.216c0.23-0.331,0.351-0.776,0.301-1.256
					c-0.097-0.909-0.764-1.582-1.494-1.504c-0.04,0.005-0.076,0.009-0.116,0.018c-0.065,0.014-0.124,0.032-0.181,0.063
					c-0.127,0.048-0.243,0.129-0.354,0.234c-0.093,0.083-0.177,0.187-0.243,0.302c-1.14,1.027-2.285,2.043-3.424,3.021l-1.253-0.797
					l4.487-6.908l2.192,1.412l0.941,0.602l2.601,1.661l0.631,0.401L356.388,344.177z"/>
				<path fill="#58595B" d="M374.805,336.805l-6.528-2.319l-1.199-0.694l-2.761-1.598l-0.007,0.002l-0.59-0.348l-2.338-1.347
					l3.79,0.156l0.591,0.381c-0.086,0.075-0.181,0.146-0.27,0.215c-0.006,0-0.006,0-0.006,0c-0.095,0.028-0.161,0.071-0.196,0.136
					c-0.005,0.006-0.005,0.019-0.008,0.024c-0.08,0.057-0.157,0.118-0.24,0.187c0.078-0.062,0.156-0.125,0.24-0.18
					c-0.007,0.007-0.011,0.012-0.011,0.018c-0.025,0.094-0.003,0.204,0.077,0.341c0.146,0.283,0.537,0.645,1.047,0.938
					c0.627,0.358,1.243,0.516,1.543,0.407c0.07-0.027,0.127-0.069,0.158-0.118c0.116-0.091,0.232-0.176,0.343-0.262L374.805,336.805
					z"/>
			</g>
			<g>
				<path fill="#F1C6DD" d="M331.305,361.563c0.059,0.545-0.129,1.05-0.455,1.361c-0.123,0.085-0.244,0.169-0.365,0.248
					c-0.34,0.234-0.68,0.462-1.023,0.69l-0.977-2.025l-0.764-0.404c0.487-0.329,0.975-0.658,1.462-0.984h0.005
					c0.007-0.007,0.017-0.015,0.023-0.021c0.09-0.057,0.174-0.113,0.264-0.177c0.08-0.038,0.153-0.064,0.241-0.086
					c0.042-0.011,0.077-0.014,0.118-0.019C330.558,360.068,331.213,360.7,331.305,361.563z"/>
				<path fill="#F1C6DD" d="M329.461,363.86"/>
				<path fill="#F1C6DD" d="M352.337,345.507c0.05,0.479-0.07,0.925-0.301,1.256c-0.158,0.143-0.322,0.291-0.483,0.43
					c-0.798,0.72-1.601,1.428-2.4,2.125c-0.333,0.3-0.677,0.596-1.01,0.882l-1.171-0.835l-1.537-0.799
					c0.365-0.302,0.724-0.604,1.091-0.925c1.139-0.979,2.284-1.994,3.424-3.021c0.204-0.178,0.399-0.359,0.597-0.536
					c0.057-0.03,0.115-0.049,0.181-0.063c0.04-0.009,0.076-0.013,0.116-0.018C351.573,343.925,352.24,344.598,352.337,345.507z"/>
				<path fill="#F1C6DD" d="M373.403,328.506c0.059,0.563-0.142,1.096-0.499,1.401c-0.171,0.086-0.349,0.175-0.529,0.274
					c-0.856,0.456-1.747,1.013-2.674,1.657c-0.414,0.283-0.833,0.586-1.261,0.905c-0.11,0.086-0.227,0.171-0.343,0.262
					c-0.051,0.034-0.101,0.076-0.158,0.118c-0.3,0.108-0.916-0.049-1.543-0.407c-0.51-0.294-0.901-0.655-1.047-0.938
					c-0.08-0.137-0.103-0.247-0.077-0.341c0-0.006,0.004-0.011,0.011-0.018v-0.007c0.064-0.055,0.132-0.105,0.204-0.16
					c0,0,0,0,0.006,0c0.089-0.069,0.184-0.14,0.27-0.215h0.007c0.438-0.34,0.871-0.668,1.308-0.985
					c1.451-1.064,2.86-1.972,4.21-2.665c0.199-0.101,0.393-0.199,0.588-0.291l0.063-0.008
					C372.658,327.014,373.312,327.646,373.403,328.506z"/>
				<path fill="#F1C6DD" d="M325.68,362.779"/>
				<path fill="#F1C6DD" d="M327.721,361.433"/>
			</g>
		</g>
		<g>
			<g>
				<polygon fill="#A7A9AC" points="353.87,372.53 336.265,381.896 335.966,373.209 345.41,367.265 346.675,366.47 349.914,364.43 
					350.902,366.448 352.797,370.333 				"/>
				<polygon fill="#D1D3D4" points="349.914,364.43 346.675,366.47 345.41,367.265 335.966,373.209 334.686,372.38 331.586,370.381 
					330.627,369.762 331.868,368.857 332.42,368.45 333.795,367.447 342.926,360.767 344.007,361.33 347.315,363.065 
					348.562,363.722 349.152,364.029 				"/>
				<polygon fill="#6D6E71" points="335.968,373.209 336.267,381.896 328.024,376.318 330.628,369.762 334.686,372.38 				"/>
				<polygon fill="#D1D3D4" points="362.612,355.971 356.348,360.872 354.938,359.983 354.304,359.59 350.779,357.371 
					356.928,353.054 361.071,355.181 				"/>
				<path fill="#6D6E71" d="M351.166,362.652c-0.116,0.085-0.234,0.163-0.352,0.246c0.012-0.013,0.021-0.026,0.031-0.032
					C350.944,362.772,351.051,362.699,351.166,362.652z"/>
				<path fill="#6D6E71" d="M352.48,365.368c-0.081,0.082-0.17,0.139-0.268,0.185C352.303,365.496,352.392,365.432,352.48,365.368z"
					/>
				<polygon fill="#A7A9AC" points="369.262,360.679 355.048,371.756 356.114,362.811 356.348,360.872 362.612,355.971 
					363.782,356.803 				"/>
				<path fill="#6D6E71" d="M356.348,360.872l-0.233,1.938l-1.066,8.945l-2.251-1.423l-1.895-3.885
					c0.431-0.291,0.86-0.591,1.298-0.889c0.006,0,0.006,0,0.013-0.007c0.098-0.046,0.187-0.103,0.268-0.185
					c0.344-0.313,0.543-0.825,0.483-1.382c-0.092-0.867-0.747-1.499-1.471-1.422c-0.041,0.003-0.076,0.008-0.119,0.019
					c-0.069,0.013-0.14,0.038-0.208,0.069c-0.115,0.047-0.222,0.12-0.32,0.214c-0.01,0.006-0.02,0.02-0.031,0.032
					c-0.556,0.378-1.108,0.754-1.662,1.131l-0.591-0.308l-1.246-0.656l3.464-5.694l3.524,2.219l0.635,0.394L356.348,360.872z"/>
				<polygon fill="#A7A9AC" points="387.905,345.141 370.565,359.562 372.002,350.739 381.369,342.852 				"/>
				<path fill="#6D6E71" d="M366.292,350.548c-0.186,0.17-0.365,0.338-0.548,0.502c0.067-0.108,0.147-0.202,0.235-0.283
					C366.076,350.673,366.177,350.603,366.292,350.548z"/>
				<path fill="#6D6E71" d="M367.863,353.158c-0.06,0.097-0.135,0.188-0.216,0.271c-0.098,0.094-0.204,0.172-0.324,0.225
					C367.504,353.491,367.684,353.328,367.863,353.158z"/>
				<path fill="#6D6E71" d="M378.667,339.552c-0.056,0.041-0.11,0.089-0.171,0.137c0-0.005,0.004-0.012,0.004-0.012
					C378.536,339.619,378.592,339.577,378.667,339.552z"/>
				<path fill="#6D6E71" d="M381.11,341.423c0.01-0.008,0.017-0.009,0.023-0.009c-0.096,0.07-0.184,0.139-0.279,0.209
					C380.938,341.554,381.026,341.49,381.11,341.423z"/>
				<path fill="#6D6E71" d="M381.311,341.275c0,0.005,0,0.005,0,0.005c-0.007,0-0.006,0.007-0.006,0.007
					c-0.035,0.057-0.098,0.101-0.171,0.127C381.193,341.358,381.254,341.317,381.311,341.275z"/>
				<polygon fill="#D1D3D4" points="381.369,342.852 372.002,350.739 371.736,350.575 371.105,350.176 368.495,348.525 
					367.557,347.93 365.35,346.531 374.452,338.907 376.796,340.241 377.39,340.58 377.396,340.58 380.168,342.164 				"/>
				<path fill="#6D6E71" d="M372.002,350.739l-1.437,8.822l-5.774-3.647c0.846-0.744,1.689-1.498,2.532-2.261
					c0.12-0.053,0.227-0.131,0.324-0.225c0.081-0.082,0.156-0.174,0.216-0.271c0.008-0.007,0.008-0.011,0.012-0.011
					c0.195-0.323,0.296-0.741,0.247-1.186c-0.097-0.914-0.758-1.587-1.487-1.511c-0.048,0.005-0.081,0.008-0.123,0.021
					c-0.076,0.018-0.152,0.039-0.22,0.076c-0.115,0.055-0.216,0.125-0.313,0.219c-0.088,0.081-0.168,0.175-0.235,0.283
					c-1.198,1.094-2.396,2.168-3.588,3.2l-1.256-0.79l4.449-6.929l2.207,1.398l0.938,0.596l2.61,1.65l0.631,0.399L372.002,350.739z"
					/>
				<path fill="#58595B" d="M387.905,345.141l-6.536-2.289l-1.201-0.688l-2.772-1.584h-0.006l-0.594-0.339l-2.344-1.334l3.789,0.138
					l0.599,0.373c-0.057,0.043-0.116,0.091-0.173,0.134c-0.075,0.025-0.131,0.067-0.167,0.125c0,0-0.004,0.007-0.004,0.012
					c-0.123,0.091-0.25,0.195-0.377,0.299c0.127-0.104,0.254-0.2,0.377-0.292c-0.007,0.006-0.01,0.019-0.015,0.032
					c-0.025,0.092-0.002,0.203,0.078,0.34c0.144,0.284,0.537,0.646,1.047,0.933c0.6,0.344,1.193,0.502,1.504,0.423
					c-0.084,0.067-0.173,0.131-0.256,0.2c0.096-0.07,0.184-0.139,0.279-0.209c0.073-0.026,0.136-0.07,0.171-0.127
					c0,0-0.001-0.007,0.006-0.007c0,0,0,0,0-0.005c0.072-0.057,0.143-0.106,0.216-0.162L387.905,345.141z"/>
			</g>
			<g>
				<path fill="#F1C6DD" d="M352.964,363.986c0.06,0.557-0.14,1.069-0.483,1.382c-0.089,0.063-0.178,0.128-0.268,0.185
					c-0.007,0.007-0.007,0.007-0.013,0.007c-0.438,0.298-0.867,0.598-1.298,0.889l-0.988-2.019l-0.762-0.4
					c0.554-0.377,1.106-0.753,1.662-1.131c0.117-0.083,0.235-0.161,0.352-0.246c0.068-0.031,0.139-0.057,0.208-0.069
					c0.043-0.011,0.078-0.016,0.119-0.019C352.217,362.487,352.872,363.119,352.964,363.986z"/>
				<path fill="#F1C6DD" d="M350.904,366.446"/>
				<path fill="#F1C6DD" d="M368.122,351.962c0.049,0.444-0.052,0.862-0.247,1.186c-0.004,0-0.004,0.004-0.012,0.011
					c-0.18,0.17-0.359,0.333-0.54,0.495c-0.843,0.763-1.687,1.517-2.532,2.261c-0.335,0.3-0.675,0.594-1.009,0.889l-1.17-0.832
					l-1.541-0.79c0.364-0.302,0.721-0.61,1.085-0.931c1.191-1.032,2.39-2.106,3.588-3.2c0.183-0.164,0.362-0.332,0.548-0.502
					c0.067-0.037,0.144-0.059,0.22-0.076c0.042-0.013,0.075-0.016,0.123-0.021C367.364,350.375,368.025,351.048,368.122,351.962z"/>
				<path fill="#F1C6DD" d="M386.024,337.09c0.061,0.564-0.136,1.077-0.481,1.391c-0.165,0.083-0.329,0.178-0.491,0.272
					c-0.855,0.486-1.743,1.062-2.658,1.718c-0.29,0.21-0.573,0.42-0.867,0.643c-0.073,0.056-0.144,0.105-0.216,0.162
					c0,0.005,0,0.005,0,0.005c-0.057,0.037-0.117,0.086-0.177,0.134c-0.096,0.07-0.184,0.139-0.279,0.209
					c0.083-0.069,0.172-0.133,0.256-0.2c-0.311,0.079-0.904-0.079-1.504-0.423c-0.51-0.287-0.903-0.648-1.047-0.933
					c-0.08-0.137-0.104-0.248-0.078-0.34c0.005-0.014,0.008-0.026,0.015-0.032c0-0.007,0-0.007,0-0.007
					c0.061-0.048,0.122-0.097,0.184-0.139c0.053-0.048,0.104-0.089,0.16-0.132h0.005c0.314-0.249,0.627-0.486,0.938-0.724
					c1.423-1.067,2.802-1.988,4.128-2.717c0.175-0.103,0.351-0.193,0.527-0.285c0.04-0.01,0.077-0.014,0.117-0.019
					C385.279,335.598,385.935,336.231,386.024,337.09z"/>
				<path fill="#F1C6DD" d="M347.119,365.385"/>
				<path fill="#F1C6DD" d="M349.152,364.027"/>
			</g>
		</g>
		<path fill="#BCBEC0" d="M390.859,271.093l-10.078,4.836l2.889-0.15l-6.507,6.983l0.35,11.729l-16.258,5.39l-0.006,0.002
			l-2.508,0.83l-9.176-2.094l-3.412-1.4l-4.749,3.987l50.221,34.166l18.501-18.288l7.581-30.444L390.859,271.093z M378.433,313.001
			c1.065-2.916,1.782-5.092,1.782-5.092c3.529-0.38,6.927-1.622,9.954-3.168c0.179,2.027,0.608,3.309,0.608,3.309
			C386.948,308.533,382.094,310.913,378.433,313.001z"/>
		<path fill="#58595B" d="M380.215,307.909c0,0-0.717,2.176-1.782,5.092v0.006c-3.031,1.73-5.245,3.261-5.396,3.361
			c2.759-4.468,3.787-16.391,3.787-16.391L380.215,307.909z"/>
		<path fill="#939598" d="M394.187,291.138c-3.957,4.999-4.321,10.288-4.018,13.598v0.006c-3.027,1.546-6.425,2.788-9.954,3.168
			l-3.392-7.932C386.145,300.187,394.187,291.138,394.187,291.138z"/>
		<polygon fill="#A7A9AC" points="412.734,327.482 395.237,346.307 389.315,345.176 391.629,335.373 410.124,317.085 		"/>
		<polygon fill="#808285" points="419.663,295.638 412.734,327.482 410.124,317.085 417.707,286.641 		"/>
		<g>
			<polygon fill="#6D6E71" points="310.008,309.491 303.227,311.908 301.808,300.125 309.017,302.182 309.649,306.847 			"/>
			<path fill="#BCBEC0" d="M318.582,293.384l-1.591,1.466c-0.005,0.011-0.017,0.013-0.021,0.02l-7.116,6.545h-0.008l-0.829,0.768
				l-7.209-2.057l12.168-14.028l1.969,3.121L318.582,293.384z"/>
			<polygon fill="#BCBEC0" points="338.624,278.262 337.957,285.804 324.253,289.267 315.184,285.11 			"/>
			<path fill="#A7A9AC" d="M320.136,302.309l-10.128,7.183l-0.358-2.645l-0.633-4.665l0.829-0.768h0.008l7.116-6.545
				c0.005-0.007,0.017-0.009,0.021-0.02l1.591-1.466l0.076,0.431l0.55,3.146l0.634,3.652l0.02,0.148L320.136,302.309z"/>
			<path fill="#6D6E71" d="M326.092,299.806l-6.23,0.955l-0.02-0.148l-0.634-3.652c0.522-0.337,1.048-0.639,1.59-0.912
				c0.022-0.003,0.051-0.012,0.075-0.016c0.181-0.05,0.346-0.126,0.483-0.261c0.006,0,0.006,0,0.011-0.007
				c0.346-0.308,0.549-0.82,0.495-1.385c-0.087-0.861-0.737-1.499-1.461-1.429l-0.052,0.005c-0.008,0.001-0.013,0.001-0.018,0.009
				c-0.007-0.006-0.007-0.006-0.014,0c-0.004-0.005-0.01,0.002-0.017,0.002l-0.019,0.002c-0.174,0.044-0.33,0.108-0.466,0.23h-0.007
				c-0.387,0.191-0.77,0.393-1.152,0.615l-0.076-0.431l-2.638-4.166l-0.761-4.107l9.069,4.156l0.367,2.092l0.511,2.97l0.841,4.801
				L326.092,299.806z"/>
			<path fill="#6D6E71" d="M321.862,294.38c0.054,0.564-0.149,1.077-0.495,1.385c-0.005,0.007-0.005,0.007-0.011,0.007
				c-0.138,0.135-0.303,0.211-0.483,0.261c-0.024,0.004-0.053,0.013-0.075,0.016c-0.542,0.273-1.067,0.575-1.59,0.912l-0.55-3.146
				c0.383-0.223,0.766-0.424,1.152-0.615h0.007c0.136-0.122,0.292-0.187,0.466-0.23l0.019-0.002c0.007,0,0.013-0.007,0.017-0.002
				c0.007-0.006,0.007-0.006,0.014,0c0.005-0.008,0.01-0.008,0.018-0.009l0.052-0.005
				C321.125,292.881,321.775,293.519,321.862,294.38z"/>
			<polygon fill="#A7A9AC" points="339.25,296.975 326.092,299.806 325.972,299.129 325.131,294.328 324.62,291.358 
				324.253,289.267 337.957,285.804 338.215,288.026 338.557,291.008 339.128,295.944 			"/>
			<path fill="#58595B" d="M338.894,288.188c-0.057,0.27-0.057,0.773-0.003,1.339c0.065,0.671,0.195,1.232,0.316,1.441h0.005
				c0.03,0.062,0.068,0.094,0.1,0.091c0.006,0,0.017-0.007,0.028-0.016c0.018-0.014,0.037-0.044,0.051-0.083
				c0.184-0.014,0.376-0.015,0.58-0.018l0.496,4.681l-1.217,1.352l-0.122-1.03l-0.571-4.937l-0.342-2.981l-0.258-2.223l0.667-7.542
				l1.029,9.689c-0.203,0.01-0.393,0.019-0.585,0.026c-0.026-0.021-0.045-0.031-0.063-0.03c-0.005,0-0.012,0.002-0.021,0.009
				c-0.014,0.009-0.017,0.014-0.028,0.026C338.93,288.021,338.912,288.089,338.894,288.188z"/>
			<path fill="#58595B" d="M339.653,287.951l0.317,2.991c-0.204,0.003-0.396,0.004-0.58,0.018c-0.014,0.039-0.033,0.069-0.051,0.083
				c-0.012,0.009-0.022,0.016-0.028,0.016c-0.031,0.003-0.069-0.029-0.1-0.091h-0.005c-0.121-0.209-0.251-0.771-0.316-1.441
				c-0.054-0.565-0.054-1.069,0.003-1.339c0.019-0.099,0.036-0.166,0.062-0.205c0.012-0.013,0.015-0.018,0.028-0.026
				c0.01-0.007,0.017-0.009,0.021-0.009c0.019-0.001,0.037,0.009,0.063,0.03C339.261,287.97,339.45,287.961,339.653,287.951z"/>
			<path fill="#6D6E71" d="M348.945,284.253l0.184,4.276l0.129,3.018l0.126,2.949l0.119,2.705l0.062,1.422l-3.412-1.401
				l-4.255-1.751l-0.351-4.536c0.754,0.017,1.572,0.051,2.473,0.11c0.184,0.09,0.385,0.127,0.594,0.105
				c0.053-0.005,0.111-0.017,0.165-0.029c0.017-0.008,0.04-0.011,0.057-0.019c0.163-0.052,0.311-0.135,0.438-0.249
				c0.349-0.313,0.548-0.822,0.494-1.385c-0.062-0.647-0.442-1.171-0.936-1.36c-0.007,0.003-0.013-0.004-0.02-0.003
				c-0.157-0.062-0.327-0.084-0.499-0.067c-0.041,0.005-0.085,0.003-0.117,0.013c-0.013,0.001-0.024,0.004-0.037,0.01
				c-1.039-0.069-1.978-0.108-2.838-0.117l-0.753-9.888L348.945,284.253z"/>
			<path fill="#6D6E71" d="M345.767,289.469c0.054,0.563-0.146,1.071-0.494,1.385c-0.127,0.114-0.274,0.197-0.438,0.249
				c-0.017,0.008-0.04,0.011-0.057,0.019c-0.054,0.013-0.112,0.024-0.165,0.029c-0.209,0.021-0.41-0.016-0.594-0.105
				c-0.9-0.06-1.719-0.094-2.473-0.11l-0.227-2.991c0.86,0.009,1.799,0.048,2.838,0.117c0.013-0.006,0.024-0.009,0.037-0.01
				c0.032-0.01,0.076-0.008,0.117-0.013c0.172-0.017,0.342,0.006,0.499,0.067c0.007-0.001,0.013,0.006,0.02,0.003
				C345.324,288.298,345.705,288.821,345.767,289.469z"/>
			<polygon fill="#BCBEC0" points="383.667,275.781 377.161,282.766 365.239,283.395 348.945,284.253 340.567,278.055 
				380.78,275.931 			"/>
			<polygon fill="#58595B" points="383.667,275.781 383.821,278.916 377.522,294.492 377.517,294.494 377.161,282.766 			"/>
			<polygon fill="#A7A9AC" points="377.161,282.766 377.517,294.494 361.254,299.886 361.249,299.886 358.738,300.716 
				349.564,298.623 349.503,297.201 349.384,294.496 349.258,291.547 349.129,288.529 348.945,284.253 365.239,283.395 			"/>
		</g>
		<g>
			<path fill="#F1C6DD" d="M321.862,294.38c0.054,0.564-0.149,1.077-0.495,1.385c-0.005,0.007-0.005,0.007-0.011,0.007
				c-0.188,0.087-0.378,0.179-0.559,0.276c-0.542,0.273-1.067,0.575-1.59,0.912l-0.55-3.146c0.383-0.223,0.766-0.424,1.152-0.615
				h0.007c0.16-0.077,0.318-0.153,0.484-0.232c0.007,0,0.013-0.007,0.017-0.002c0.007-0.006,0.007-0.006,0.014,0
				c0.005-0.008,0.01-0.008,0.018-0.009l0.052-0.005C321.125,292.881,321.775,293.519,321.862,294.38z"/>
			<path fill="#F1C6DD" d="M345.767,289.469c0.054,0.563-0.146,1.071-0.494,1.385c-0.127,0.114-0.274,0.197-0.438,0.249
				c-0.277-0.024-0.551-0.043-0.815-0.058c-0.9-0.06-1.719-0.094-2.473-0.11c-0.557-0.011-1.087-0.01-1.576,0.008
				c-0.204,0.003-0.396,0.004-0.58,0.018c-0.065,0.002-0.121,0.002-0.179,0.008h-0.005c-0.121-0.209-0.251-0.771-0.316-1.441
				c-0.054-0.565-0.054-1.069,0.003-1.339c0.019-0.099,0.036-0.166,0.062-0.205c0.035-0.004,0.078-0.009,0.113-0.005
				c0.192-0.008,0.382-0.017,0.585-0.026c0.521-0.014,1.079-0.019,1.667-0.008c0.86,0.009,1.799,0.048,2.838,0.117
				c0.213,0.014,0.43,0.034,0.653,0.045c0.007-0.001,0.013,0.006,0.02,0.003C345.324,288.298,345.705,288.821,345.767,289.469z"/>
		</g>
	</g>
</g>
</svg>
