<?xml version="1.0" encoding="utf-8"?>
<!-- Generator: Adobe Illustrator 26.5.0, SVG Export Plug-In . SVG Version: 6.00 Build 0)  -->
<svg version="1.1" id="Layer_1" xmlns="http://www.w3.org/2000/svg" xmlns:xlink="http://www.w3.org/1999/xlink" x="0px" y="0px"
	 viewBox="0 0 566.9 566.9" style="enable-background:new 0 0 566.9 566.9;" xml:space="preserve">
<style type="text/css">
	.st0{fill:#414042;}
	.st1{fill:#E6E7E8;}
	.st2{fill:#808285;}
	.st3{fill:#D1D3D4;}
	.st4{fill:none;}
	.st5{fill:#939598;}
	.st6{fill:#BE1E2D;}
	.st7{opacity:0.8;fill:url(#SVGID_1_);enable-background:new    ;}
	.st8{fill:#6D6E71;}
	.st9{fill:#A7A9AC;}
	.st10{fill:#58595B;}
	.st11{fill:#F1C6DD;}
	.st12{fill:#BCBEC0;}
</style>
<g>
	<g>
		<path class="st0" d="M90.5,248.4L88,271.2c-0.1,0.7-0.3,1.3-0.7,1.9c-0.4,0.6-0.8,1.1-1.3,1.5c-0.5,0.4-1.1,0.7-1.8,0.9
			c-0.7,0.2-1.3,0.2-2,0.2c-0.7-0.1-1.4-0.3-2-0.6c-0.6-0.3-1.2-0.8-1.7-1.3c-0.5-0.5-0.8-1.1-1.1-1.7c-0.3-0.6-0.3-1.3-0.3-2
			l2.1-18.9l-9.1-1l0.4-4L90.5,248.4z M79.2,267.4c-0.1,0.5,0,1,0.1,1.5c0.1,0.5,0.4,0.9,0.7,1.3c0.3,0.4,0.7,0.7,1.1,0.9
			c0.4,0.2,0.9,0.4,1.4,0.5c0.5,0.1,1,0,1.5-0.1c0.4-0.2,0.8-0.4,1.2-0.7c0.3-0.3,0.6-0.7,0.8-1.1c0.2-0.4,0.4-0.9,0.4-1.5l1.8-16.1
			l-7.3-0.8L79.2,267.4z"/>
		<path class="st0" d="M74.9,310.8c0.5,0,1-0.2,1.4-0.4c0.4-0.2,0.8-0.5,1-0.9s0.5-0.8,0.6-1.3c0.1-0.5,0.2-1,0.1-1.5l-1.3-16.2
			l-9.1,0.7l-0.3-4l20-1.6l1.9,22.9c0.1,0.7,0,1.4-0.3,2c-0.2,0.6-0.6,1.2-1,1.7c-0.4,0.5-1,0.9-1.6,1.2c-0.6,0.3-1.3,0.5-2,0.6
			c-0.9,0.1-1.8-0.1-2.7-0.4c-0.9-0.4-1.6-0.9-2.2-1.5c-0.4,0.7-1,1.4-1.8,1.8c-0.8,0.5-1.6,0.8-2.5,0.8l-5.6,0.5l-0.3-4L74.9,310.8
			z M79.9,306.8c0.1,0.5,0.2,1,0.4,1.4s0.5,0.8,0.9,1.1c0.4,0.3,0.8,0.5,1.2,0.7s1,0.2,1.5,0.2c0.5,0,1-0.2,1.4-0.4
			c0.4-0.2,0.8-0.5,1-0.9c0.3-0.4,0.5-0.8,0.6-1.3s0.2-1,0.1-1.5l-1.3-16.2l-7.3,0.6L79.9,306.8z"/>
		<path class="st0" d="M75.1,339.4c-0.3-0.9-0.4-1.8-0.4-2.7c0-0.9,0.1-1.7,0.3-2.6s0.5-1.6,0.9-2.4s0.9-1.4,1.5-2.1s1.3-1.2,2-1.6
			c0.8-0.5,1.6-0.8,2.5-1.1s1.8-0.4,2.7-0.4c0.9,0,1.7,0.1,2.6,0.3s1.6,0.5,2.4,0.9c0.8,0.4,1.4,0.9,2.1,1.5s1.2,1.3,1.6,2
			s0.8,1.6,1.1,2.5l2.2,7.7c0.4,1.3,0.5,2.6,0.3,4s-0.6,2.5-1.2,3.7c-0.6,1.1-1.4,2.1-2.5,2.9c-1,0.8-2.2,1.5-3.5,1.8
			c-0.9,0.3-1.8,0.4-2.7,0.4c-0.9,0-1.7-0.1-2.6-0.3s-1.6-0.5-2.4-0.9c-0.8-0.4-1.4-0.9-2.1-1.5c-0.6-0.6-1.2-1.3-1.6-2
			c-0.5-0.8-0.8-1.6-1.1-2.5L75.1,339.4z M83.2,331.2c-1.1,0.3-2.1,0.8-2.9,1.5s-1.5,1.5-2,2.4s-0.8,1.9-1,3c-0.1,1.1,0,2.2,0.3,3.3
			l0.8,2.7c0.3,1.1,0.8,2.1,1.5,2.9c0.7,0.8,1.5,1.5,2.4,2c0.9,0.5,1.9,0.8,3,1s2.2,0,3.3-0.3s2.1-0.8,2.9-1.5
			c0.8-0.7,1.5-1.5,2-2.4c0.5-0.9,0.8-1.9,1-3s0-2.2-0.3-3.3l-0.8-2.7c-0.3-1.1-0.8-2.1-1.5-2.9c-0.7-0.8-1.5-1.5-2.4-2
			c-0.9-0.5-1.9-0.8-3-1S84.2,330.9,83.2,331.2z"/>
		<path class="st0" d="M102.9,360.2l1.1,2.1l-11.2,17.5l20.9,1.4l2,3.9l-23.3-1.5l-2-3.9L102.9,360.2z"/>
		<path class="st0" d="M111.4,413.5c-0.6-0.7-1-1.5-1.4-2.3c-0.3-0.8-0.6-1.7-0.7-2.5c-0.1-0.9-0.1-1.7,0-2.6
			c0.1-0.9,0.3-1.7,0.6-2.5c0.3-0.8,0.7-1.6,1.3-2.3c0.5-0.7,1.1-1.4,1.9-1.9s1.5-1,2.3-1.4c0.8-0.3,1.7-0.6,2.5-0.7
			c0.8-0.1,1.7-0.1,2.6,0c0.9,0.1,1.7,0.3,2.5,0.6s1.6,0.7,2.3,1.3s1.4,1.1,1.9,1.9l11.1,14.2l-1.4,1.1l-9.5-12.1
			c-0.7-0.8-1.4-1.5-2.3-2s-1.8-0.8-2.8-1c-1-0.2-1.9-0.2-2.9,0s-1.9,0.5-2.8,1.1l14.5,18.6l-1.4,1.1l-14.5-18.6
			c-0.7,0.7-1.3,1.6-1.7,2.5c-0.4,0.9-0.7,1.9-0.7,2.8c-0.1,1,0,1.9,0.3,2.9c0.3,1,0.8,1.9,1.4,2.7l9.5,12.1l-1.4,1.1L111.4,413.5z"
			/>
		<path class="st0" d="M169.3,455.2l-4.1-15.3l4.7,3.1l3.1,11.5l12.3-1.5l3.4,2.2l-15.3,1.8l-5.6,8.5l-3.7-2.4L169.3,455.2z"/>
		<path class="st0" d="M198.9,481.9c-0.9-0.3-1.6-0.8-2.3-1.3c-0.7-0.5-1.3-1.2-1.8-1.8c-0.5-0.7-1-1.4-1.3-2.2s-0.6-1.6-0.7-2.5
			c-0.1-0.9-0.1-1.7,0-2.6c0.1-0.9,0.3-1.7,0.7-2.6s0.8-1.6,1.3-2.3c0.5-0.7,1.2-1.3,1.8-1.8c0.7-0.5,1.4-1,2.2-1.3
			c0.8-0.3,1.6-0.6,2.5-0.7c0.9-0.1,1.7-0.1,2.6,0c0.9,0.1,1.8,0.3,2.6,0.7l7.4,3c1.3,0.5,2.4,1.2,3.3,2.2c0.9,0.9,1.6,2,2.1,3.2
			s0.8,2.4,0.8,3.8c0,1.3-0.2,2.6-0.7,3.9c-0.3,0.9-0.8,1.6-1.3,2.3c-0.5,0.7-1.2,1.3-1.8,1.8c-0.7,0.5-1.4,1-2.2,1.3
			c-0.8,0.3-1.6,0.6-2.5,0.7c-0.9,0.1-1.7,0.1-2.6,0c-0.9-0.1-1.8-0.3-2.6-0.7L198.9,481.9z M197.4,470.6c-0.4,1.1-0.6,2.1-0.6,3.2
			c0,1.1,0.2,2.1,0.6,3.1c0.4,1,1,1.8,1.8,2.6c0.8,0.8,1.7,1.4,2.7,1.8l2.6,1.1c1.1,0.4,2.1,0.6,3.2,0.6s2.1-0.2,3.1-0.6
			c1-0.4,1.8-1,2.6-1.8s1.4-1.7,1.8-2.7c0.4-1.1,0.6-2.1,0.6-3.2c0-1.1-0.2-2.1-0.6-3.1c-0.4-1-1-1.8-1.8-2.6s-1.7-1.4-2.7-1.8
			l-2.6-1.1c-1.1-0.4-2.1-0.6-3.2-0.6c-1.1,0-2.1,0.2-3.1,0.6c-1,0.4-1.8,1-2.6,1.8C198.4,468.6,197.8,469.5,197.4,470.6z"/>
		<path class="st0" d="M258.9,488.2c-0.2,0.9-0.5,1.8-0.8,2.5c-0.4,0.8-0.9,1.5-1.4,2.2c-0.6,0.6-1.2,1.2-1.9,1.7s-1.5,0.9-2.3,1.2
			s-1.7,0.5-2.5,0.6s-1.8,0-2.7-0.1l-7.9-1.5c-0.9-0.2-1.8-0.5-2.6-0.8c-0.8-0.4-1.5-0.9-2.2-1.4c-0.6-0.6-1.2-1.2-1.7-1.9
			c-0.5-0.7-0.9-1.5-1.2-2.3c-0.3-0.8-0.5-1.7-0.6-2.5s0-1.8,0.1-2.7l1.9-9.8l3.9,0.7l-1.9,9.8c-0.2,1.1-0.2,2.2,0.1,3.3
			c0.3,1.1,0.7,2,1.4,2.9c0.6,0.9,1.4,1.6,2.4,2.2c0.9,0.6,2,1,3.1,1.2l2.8,0.5c1.1,0.2,2.2,0.2,3.3,0s2.1-0.6,3-1.2
			c0.9-0.6,1.7-1.3,2.3-2.2c0.6-0.9,1.1-1.9,1.3-3l1.9-9.8l3.9,0.7L258.9,488.2z"/>
		<path class="st0" d="M271.5,478.8l4,0.2l-0.2,3.2l-1.8,4.3l-1.6-0.1l1-4.4l-1.6-0.1L271.5,478.8z"/>
		<path class="st0" d="M311.5,491.9c0-0.5-0.2-1-0.4-1.4c-0.2-0.4-0.5-0.8-0.9-1c-0.4-0.3-0.8-0.5-1.3-0.6c-0.5-0.1-1-0.2-1.5-0.1
			l-16.2,1.4l0.8,9.1l-4,0.3l-1.7-19.9l22.9-1.9c0.7-0.1,1.4,0,2,0.3s1.2,0.6,1.7,1c0.5,0.4,0.9,1,1.2,1.6c0.3,0.6,0.5,1.3,0.6,2
			c0.1,0.9-0.1,1.8-0.4,2.7c-0.3,0.9-0.9,1.6-1.5,2.2c0.7,0.4,1.4,1,1.8,1.8c0.5,0.8,0.8,1.6,0.8,2.5l0.5,5.6l-4,0.3L311.5,491.9z
			 M307.4,486.9c0.5-0.1,1-0.2,1.4-0.5c0.4-0.2,0.8-0.5,1.1-0.9s0.5-0.8,0.7-1.3c0.1-0.5,0.2-1,0.2-1.5c0-0.5-0.2-1-0.4-1.4
			c-0.2-0.4-0.5-0.8-0.9-1c-0.4-0.3-0.8-0.5-1.3-0.6c-0.5-0.1-1-0.2-1.5-0.1l-16.2,1.4l0.6,7.3L307.4,486.9z"/>
		<path class="st0" d="M340,491.7c-0.9,0.3-1.8,0.4-2.7,0.4c-0.9,0-1.7-0.1-2.6-0.3s-1.6-0.5-2.4-0.9c-0.8-0.4-1.4-0.9-2.1-1.5
			c-0.6-0.6-1.2-1.3-1.6-2s-0.8-1.6-1.1-2.5s-0.4-1.8-0.4-2.7c0-0.9,0.1-1.7,0.3-2.6s0.5-1.6,0.9-2.4c0.4-0.8,0.9-1.4,1.5-2.1
			c0.6-0.6,1.3-1.2,2-1.6c0.8-0.5,1.6-0.8,2.5-1.1l17.3-5l0.5,1.7l-14.8,4.3c-1,0.3-1.9,0.8-2.7,1.4c-0.8,0.6-1.4,1.3-2,2.2
			s-0.9,1.7-1.1,2.7s-0.2,2,0,3l22.7-6.6l0.5,1.7l-22.7,6.6c0.4,1,1,1.8,1.6,2.5c0.7,0.7,1.5,1.3,2.4,1.7s1.8,0.7,2.8,0.8
			c1,0.1,2,0,3-0.3l14.8-4.3l0.5,1.7L340,491.7z"/>
		<path class="st0" d="M394.2,444.8l3.6-2.5l21.4,9.4l-3.6,2.5l-7.5-3.3l-10.6,7.5l0.7,8.1l-2,1.4L394.2,444.8z M397.3,456.3
			l8.8-6.2l-9.8-4.3L397.3,456.3z"/>
		<path class="st0" d="M460.1,397.6c-0.4-0.3-0.9-0.5-1.3-0.6c-0.5-0.1-0.9-0.1-1.4,0c-0.4,0.1-0.9,0.3-1.3,0.6
			c-0.4,0.3-0.8,0.6-1.1,1.1l-9.5,13.2l7.4,5.3l-2.3,3.3l-16.3-11.7l13.4-18.7c0.4-0.6,0.9-1,1.5-1.3c0.6-0.3,1.2-0.5,1.9-0.6
			c0.7-0.1,1.3,0,2,0.1s1.3,0.4,1.9,0.9c0.7,0.5,1.3,1.2,1.8,2s0.7,1.7,0.7,2.6c0.8-0.3,1.7-0.4,2.5-0.3s1.7,0.4,2.4,1l4.6,3.3
			l-2.3,3.3L460.1,397.6z M453.7,397.5c0.3-0.4,0.5-0.9,0.6-1.4c0.1-0.5,0.1-1,0-1.4c-0.1-0.5-0.3-0.9-0.5-1.3s-0.6-0.8-1-1.1
			c-0.4-0.3-0.9-0.5-1.3-0.6s-0.9-0.1-1.4,0c-0.4,0.1-0.9,0.3-1.3,0.6c-0.4,0.3-0.8,0.6-1.1,1.1l-9.5,13.2l5.9,4.3L453.7,397.5z"/>
		<path class="st0" d="M478.5,375.7c-0.4,0.8-0.9,1.6-1.4,2.3s-1.2,1.3-1.9,1.8s-1.5,0.9-2.3,1.2s-1.6,0.5-2.5,0.6s-1.7,0.1-2.6-0.1
			c-0.9-0.1-1.7-0.4-2.6-0.8c-0.8-0.4-1.6-0.9-2.3-1.4s-1.3-1.2-1.8-1.9c-0.5-0.7-0.9-1.5-1.2-2.3c-0.3-0.8-0.5-1.6-0.6-2.5
			s-0.1-1.7,0.1-2.6c0.1-0.9,0.4-1.7,0.8-2.6l3.3-7.3c0.6-1.3,1.3-2.3,2.3-3.2c1-0.9,2.1-1.6,3.3-2c1.2-0.5,2.5-0.7,3.8-0.6
			c1.3,0,2.6,0.3,3.9,0.9c0.8,0.4,1.6,0.9,2.3,1.4c0.7,0.6,1.3,1.2,1.8,1.9c0.5,0.7,0.9,1.5,1.2,2.3c0.3,0.8,0.5,1.6,0.6,2.5
			c0.1,0.9,0.1,1.7-0.1,2.6c-0.1,0.9-0.4,1.7-0.8,2.6L478.5,375.7z M467.1,376.7c1,0.5,2.1,0.7,3.2,0.7c1.1,0,2.1-0.2,3.1-0.5
			c1-0.4,1.9-0.9,2.7-1.7c0.8-0.7,1.4-1.6,1.9-2.7l1.2-2.6c0.5-1,0.7-2.1,0.7-3.2s-0.2-2.1-0.5-3.1c-0.4-1-0.9-1.9-1.7-2.7
			c-0.7-0.8-1.6-1.4-2.7-1.9s-2.1-0.7-3.2-0.7c-1.1,0-2.1,0.2-3.1,0.5c-1,0.4-1.9,0.9-2.7,1.7c-0.8,0.7-1.4,1.6-1.9,2.7l-1.2,2.6
			c-0.5,1-0.7,2.1-0.7,3.2c0,1.1,0.2,2.1,0.5,3.1c0.4,1,0.9,1.9,1.7,2.7S466,376.2,467.1,376.7z"/>
		<path class="st0" d="M471.1,340.8l5.1-22.4c0.2-0.7,0.4-1.3,0.8-1.8c0.4-0.5,0.9-1,1.5-1.3c0.6-0.3,1.2-0.6,1.9-0.7
			c0.7-0.1,1.3-0.1,2,0.1c0.7,0.2,1.2,0.4,1.8,0.8c0.5,0.4,0.9,0.8,1.2,1.3c0.3,0.5,0.5,1.1,0.6,1.7c0.1,0.6,0.1,1.3,0,1.9
			c0.2-0.6,0.4-1.2,0.8-1.7c0.4-0.5,0.8-0.9,1.3-1.3c0.5-0.3,1.1-0.5,1.7-0.7c0.6-0.1,1.3-0.1,1.9,0.1c0.7,0.2,1.3,0.4,1.8,0.8
			c0.6,0.4,1,0.9,1.4,1.4c0.4,0.5,0.6,1.2,0.8,1.8c0.1,0.7,0.1,1.3,0,2l-5.1,22.4L471.1,340.8z M473.7,337.3l7,1.6l3.6-15.8
			c0.1-0.5,0.1-1,0-1.5c-0.1-0.5-0.3-0.9-0.5-1.4c-0.3-0.4-0.6-0.8-1-1.1c-0.4-0.3-0.9-0.5-1.4-0.6c-0.5-0.1-1-0.1-1.5,0
			c-0.5,0.1-0.9,0.3-1.2,0.6s-0.7,0.6-0.9,1c-0.3,0.4-0.4,0.9-0.6,1.4L473.7,337.3z M482.7,339.3l7,1.6l3.6-15.8
			c0.1-0.5,0.2-1,0.1-1.5s-0.2-0.9-0.4-1.3c-0.2-0.4-0.5-0.7-0.9-1s-0.8-0.5-1.3-0.6c-0.5-0.1-1-0.1-1.5,0s-1,0.3-1.4,0.5
			s-0.8,0.6-1.1,1c-0.3,0.4-0.5,0.9-0.6,1.4L482.7,339.3z"/>
		<path class="st0" d="M498.9,293.4c0,0.9-0.2,1.8-0.4,2.7c-0.3,0.8-0.6,1.6-1.1,2.4c-0.5,0.7-1,1.4-1.6,2c-0.6,0.6-1.3,1.1-2.1,1.5
			s-1.6,0.7-2.4,0.9c-0.9,0.2-1.8,0.3-2.7,0.3c-0.9,0-1.8-0.2-2.7-0.4c-0.8-0.3-1.6-0.6-2.4-1.1c-0.7-0.5-1.4-1-2-1.6
			c-0.6-0.6-1.1-1.3-1.5-2.1c-0.4-0.8-0.7-1.6-0.9-2.4s-0.3-1.8-0.3-2.7l0.2-8c0-1.4,0.3-2.7,0.9-3.9c0.6-1.2,1.3-2.2,2.2-3.1
			c0.9-0.9,2-1.6,3.2-2.1c1.2-0.5,2.5-0.7,3.9-0.7c0.9,0,1.8,0.2,2.7,0.4c0.8,0.3,1.6,0.6,2.4,1.1c0.7,0.5,1.4,1,2,1.6
			c0.6,0.6,1.1,1.3,1.5,2.1c0.4,0.8,0.7,1.6,0.9,2.4c0.2,0.9,0.3,1.8,0.3,2.7L498.9,293.4z M488.8,298.7c1.1,0,2.2-0.2,3.2-0.6
			c1-0.4,1.9-1,2.7-1.7c0.8-0.7,1.4-1.6,1.8-2.6c0.5-1,0.7-2.1,0.7-3.2l0.1-2.8c0-1.1-0.2-2.2-0.6-3.2c-0.4-1-1-1.9-1.7-2.7
			c-0.7-0.8-1.6-1.4-2.6-1.8s-2.1-0.7-3.2-0.7s-2.2,0.2-3.2,0.6c-1,0.4-1.9,1-2.7,1.7c-0.8,0.7-1.4,1.6-1.8,2.6s-0.7,2.1-0.7,3.2
			l-0.1,2.8c0,1.1,0.2,2.2,0.6,3.2c0.4,1,1,1.9,1.7,2.7c0.7,0.8,1.6,1.4,2.6,1.8C486.6,298.5,487.6,298.7,488.8,298.7z"/>
		<path class="st0" d="M478.8,265.5l-4.5-27.7l1.8-0.3l1.9,11.9l18-2.9l0.6,4l-18,2.9l1.9,11.9L478.8,265.5z"/>
	</g>
	<g>
		<polygon class="st1" points="344.7,211.3 329,249.2 297.6,256.7 307.5,232.9 313.3,218.8 		"/>
		<polygon class="st2" points="313.3,218.8 307.5,232.9 297.6,256.7 179.4,189.5 174.9,187 174.9,187 174.9,187 172.8,159.2 
			171.4,140.7 206.5,102 229.2,126.8 		"/>
		<polygon class="st3" points="344.7,211.3 313.3,218.8 229.2,126.8 206.5,102 206.5,102 262.7,89.8 262.7,89.8 		"/>
		<g>
			<path class="st5" d="M179.4,189.5l-56.1,36.1c-1,0.5-2.1,0.7-3.3,0.5c-2.7-0.3-5.1-2.4-6.9-5.6c-0.9-1.6-1.6-3.5-2.2-5.5
				c-0.7-2.5-1-5.3-1-8.2c0.1-8,3.2-14.3,7.3-16.2l55.5-31.4l2.1,27.8v0h0L179.4,189.5z"/>
		</g>
		<path class="st2" d="M171.3,272.4c-0.9,5.6-4.5,9.5-8.5,8.8c-0.9-0.1-1.7-0.5-2.5-1c-3-2-5-6.6-4.6-11.7
			c0.4-6.3,4.3-10.9,8.7-10.2c0.9,0.1,1.7,0.5,2.5,1c2.4,1.6,4.1,4.8,4.6,8.6c-3-0.4-5.4-0.4-6-0.3c-1.2,0.1-2.1,1.1-2.1,2.3
			c0.1,1.2,1.1,2.1,2.3,2.1C166.8,271.9,169,272,171.3,272.4z"/>
		<path class="st5" d="M166.8,259.4c-0.8-0.5-1.6-0.8-2.5-1c-4.4-0.7-8.3,3.9-8.7,10.2c-0.3,4.7,1.4,9.1,4.1,11.3l-41.4-29.8
			c-3-2-5-6.6-4.6-11.7c0-0.6,0.1-1.1,0.2-1.7c0.3-1.8,0.9-3.4,1.8-4.8c1.6-2.6,4.1-4.2,6.7-3.8c0.9,0.1,1.7,0.5,2.5,1L166.8,259.4z
			"/>
		<path class="st3" d="M195.6,301.9c0,1.3-0.3,2.5-0.9,3.6c-3,5.5-12.6,6-21.5,1.2c-7.1-3.9-11.6-10-11.6-15.1
			c0-1.3,0.3-2.5,0.9-3.6c2.7-4.9,10.6-5.9,18.5-2.6c-0.3,2.5-1.1,5.5-2.7,9.3c-0.5,1.1,0.1,2.4,1.2,2.9c0.3,0.1,0.6,0.2,0.9,0.2
			c0.9,0,1.7-0.5,2-1.3c1.4-3.3,2.3-6.3,2.8-9C191.6,291.3,195.6,297,195.6,301.9z"/>
		<path class="st5" d="M195.1,304.6c0-0.1,0-0.1,0.1-0.2c-2,6.6-19.7,67-19.9,67.6c-0.1,0.3-0.2,0.7-0.4,1c-2.3,4.2-9.1,4.9-15.9,2
			c-0.7-0.3-1.4-0.6-2.1-1c-0.6-0.3-1.2-0.7-1.8-1.1c-4.9-3.2-7.9-7.7-7.9-11.5l14.3-69.8c0,0.6,0.1,1.1,0.2,1.7
			c0,0.2,0.1,0.3,0.1,0.5c0,0.1,0,0.2,0.1,0.2c0,0.2,0.1,0.3,0.1,0.5c0.2,0.7,0.5,1.4,0.8,2c0.1,0.3,0.3,0.5,0.4,0.8
			c0.1,0.2,0.2,0.3,0.3,0.5c0.1,0.2,0.2,0.3,0.3,0.5c0.1,0.2,0.2,0.3,0.3,0.5c0.1,0.1,0.1,0.2,0.2,0.3c0.6,0.8,1.3,1.7,2,2.5
			c0.2,0.2,0.3,0.3,0.5,0.5c0.8,0.8,1.7,1.5,2.6,2.3c0.2,0.1,0.4,0.3,0.6,0.4c0.2,0.1,0.4,0.3,0.6,0.4c0.1,0.1,0.2,0.1,0.3,0.2
			c0.2,0.1,0.4,0.3,0.6,0.4h0c0.2,0.1,0.4,0.3,0.6,0.4c0,0,0,0,0,0c0.3,0.2,0.7,0.4,1,0.6c0.8,0.4,1.5,0.8,2.3,1.1c0,0,0,0,0,0
			c0.9,0.4,1.8,0.7,2.7,1c0,0,0,0,0,0c0.3,0.1,0.5,0.2,0.8,0.2h0c0.3,0.1,0.5,0.1,0.8,0.2h0c0.3,0.1,0.5,0.1,0.8,0.2h0
			c0.2,0.1,0.5,0.1,0.7,0.2c0.4,0.1,0.7,0.1,1.1,0.2c0.4,0,0.7,0.1,1.1,0.1c3.3,0.3,6.3-0.2,8.5-1.5c0.2-0.1,0.4-0.2,0.5-0.4
			c0.1-0.1,0.2-0.1,0.3-0.2c0.2-0.1,0.3-0.3,0.5-0.4c0.6-0.6,1.2-1.2,1.6-2c0-0.1,0.1-0.1,0.1-0.2c0.1-0.1,0.1-0.3,0.2-0.4
			C195.1,304.8,195.1,304.7,195.1,304.6z"/>
		<path class="st5" d="M195.2,304.4C195.2,304.4,195.2,304.4,195.2,304.4C195.2,304.4,195.2,304.4,195.2,304.4z"/>
		<path class="st5" d="M195.4,303.9C195.4,303.9,195.4,303.9,195.4,303.9c0,0,0,0.1,0,0.1c0,0.1,0,0.2-0.1,0.2c0,0.1,0,0.1-0.1,0.2
			C195.3,304.1,195.4,304,195.4,303.9C195.4,303.9,195.4,303.9,195.4,303.9C195.4,303.9,195.4,303.9,195.4,303.9z"/>
		<path class="st0" d="M185.1,287.4c-0.5,2.7-1.4,5.7-2.8,9c-0.4,0.8-1.2,1.3-2,1.3c-0.3,0-0.6-0.1-0.9-0.2
			c-1.1-0.5-1.6-1.8-1.2-2.9c1.6-3.8,2.5-6.8,2.7-9.3c0.5-4.4-0.8-7.2-2.9-9.8c-1.4-1.7-4.2-2.7-6.8-3.1c-2.3-0.4-4.5-0.5-5.7-0.4
			c-1.2,0.1-2.2-0.9-2.3-2.1c-0.1-1.2,0.9-2.2,2.1-2.3c0.5,0,3-0.1,6,0.3c3.5,0.5,7.8,1.8,10.2,4.8
			C184.9,277,186.1,281.6,185.1,287.4z"/>
		<g>
			<path class="st0" d="M115.6,232c-0.8,1.3-1.4,3-1.8,4.8c-4-4.4-5.8-9-5.6-13.6c0.1-3.2,1.3-6,2.7-8.2c0.5,2,1.3,3.9,2.2,5.5
				c-0.3,0.9-0.5,1.9-0.5,2.9C112.5,226.2,113.5,229.1,115.6,232z"/>
			<path class="st0" d="M113.9,236.8c0.3-1.8,0.9-3.4,1.8-4.8L113.9,236.8z"/>
		</g>
	</g>
	<path class="st6" d="M328.6,235.8c-2.1,5.7-8.3,10.4-12.3,8.9c-4-1.5-4.2-6.1-2.1-11.8s8.3-10.4,12.3-8.9
		C330.5,225.5,330.7,230.1,328.6,235.8z"/>
	
		<radialGradient id="SVGID_1_" cx="321.3828" cy="333.5295" r="19.7031" gradientTransform="matrix(1 0 0 -1 0 567.89)" gradientUnits="userSpaceOnUse">
		<stop  offset="0" style="stop-color:#FFFFFF"/>
		<stop  offset="1" style="stop-color:#BE1E2D"/>
	</radialGradient>
	<path class="st7" d="M328.6,235.8c-2.1,5.7-8.3,10.4-12.3,8.9c-4-1.5-4.2-6.1-2.1-11.8s8.3-10.4,12.3-8.9
		C330.5,225.5,330.7,230.1,328.6,235.8z"/>
	<g>
		<path class="st0" d="M448.6,238.3c7.3-9.3,11.1-18,12.1-27.3c0.7-6.8,0.6-12.5-0.3-17.2c-1.1-5.6-3.4-10.1-6.9-13.7
			c-4.1-4.2-9.9-7.1-17.6-8.7c-8-1.7-17.8-2-30.1-1c-8.7,0.7-14.3,3.7-16.6,8.8c-6.2,13.4,11.8,38.2,30.9,64.5
			c2.5,3.5,5.1,7,7.6,10.5c-2.3,2.2-4.8,4.5-7.3,6.9c-6.4,6.1-13.1,12.3-20.1,19.5l3.1,3.1c7-7.1,13.6-13.4,20-19.4
			c2.4-2.2,4.6-4.4,6.8-6.5c6.8,9.7,12.9,19.1,16.7,27c4,8.6,4.3,19.5,0.9,32.4c-3,11.2-8.7,23.7-16.9,37.2
			c-15.5,25.2-35.3,46.2-44.4,53.1c-36.6,27.5-53,18.6-70.4,9.2c-8.3-4.5-16.9-9.2-27.8-9.7c-12.6-0.6-22.2,1.3-29.2,5.8
			c-6.3,4-9.8,9.6-12.9,14.5c-4,6.4-7.5,11.9-16,13.5c-5.6,1-19.6-3-35.7-10.3c-16-7.3-30.5-16.1-36.9-22.4
			c-5.2-5.2-6.6-12.3-4.1-21.1c1.7-6,4.7-10.9,5.5-12c-0.7-0.3-1.4-0.6-2.1-1c-0.6-0.3-1.2-0.7-1.8-1.1c-1.1,1.7-4,6.7-5.8,12.8
			c-3,10.4-1.2,19.2,5.1,25.5c6.8,6.8,21.4,15.7,38.2,23.3c6,2.7,24.9,10.9,35.5,10.9c1,0,1.9-0.1,2.8-0.2
			c10.4-1.9,14.8-8.8,18.9-15.4c6-9.6,12.3-19.5,38.2-18.3c9.9,0.5,17.7,4.7,25.9,9.2c8.8,4.8,18,9.7,29.8,9.7h0
			c6.4,0,12.9-1.4,19.9-4.3c7.8-3.2,16.1-8.1,25.3-15c11.1-8.4,31.2-31,45.5-54.3c13.2-21.5,26.6-51.7,16.2-73.7
			c-4-8.4-10.4-18.2-17.5-28.2C439.2,249.1,444.3,243.7,448.6,238.3z M430.8,251.1c-2.4-3.3-4.8-6.7-7.2-10
			c-8.9-12.2-18-24.9-24.1-35.7c-6.5-11.6-8.6-19.6-6.4-24.4c1.6-3.6,6-5.6,13-6.2c4.5-0.4,8.7-0.6,12.6-0.6
			c15.3,0,25.7,2.9,31.5,8.9c5.6,5.7,7.4,14.1,6,27.5C454.8,225.5,445,237.2,430.8,251.1z"/>
	</g>
	<g>
		<polygon class="st8" points="391.6,335.4 389.3,345.2 339.1,311 341.4,301.2 		"/>
		<g>
			<g>
				<polygon class="st9" points="309,349.9 307.3,350.8 304.2,352.3 291.3,359.1 291.1,350.5 300.5,344.6 301.8,343.8 305,341.8 
					306,343.8 307.9,347.7 				"/>
				<polygon class="st3" points="305,341.8 301.8,343.8 300.5,344.6 291.1,350.5 289.8,349.6 285.7,347 298.1,338.1 302.5,340.4 
					303.7,341 304.3,341.3 				"/>
				<polygon class="st8" points="291.1,350.5 291.3,359.1 283.1,353.5 285.7,347 289.8,349.6 				"/>
				<polygon class="st3" points="323.2,329.9 311.5,338.2 310.1,337.3 309.5,336.9 305.9,334.7 317.5,326.9 321.7,329.1 				"/>
				<path class="st8" d="M306.2,340c-0.1,0.1-0.2,0.1-0.3,0.2C306,340.1,306.1,340.1,306.2,340z"/>
				<path class="st8" d="M307.6,342.7C307.6,342.7,307.6,342.7,307.6,342.7c-0.1,0.1-0.2,0.2-0.3,0.2
					C307.4,342.9,307.5,342.8,307.6,342.7z"/>
				<polygon class="st9" points="329.8,334.6 310.1,349.1 311.2,340.2 311.5,338.2 323.2,329.9 324.4,330.7 				"/>
				<path class="st8" d="M311.5,338.2l-0.2,1.9l-1.1,8.9l-2.2-1.4l-1.9-3.9c0.4-0.3,0.8-0.6,1.2-0.8c0.1,0,0.2-0.1,0.3-0.2
					c0,0,0,0,0,0c0.3-0.3,0.5-0.8,0.5-1.4c-0.1-0.9-0.7-1.5-1.5-1.4c0,0-0.1,0-0.1,0c-0.1,0-0.2,0-0.2,0.1c-0.1,0-0.2,0.1-0.3,0.2
					c0,0,0,0,0,0c-0.5,0.4-1.1,0.7-1.6,1.1l-0.6-0.3l-1.2-0.7l3.5-5.7l3.5,2.2l0.6,0.4L311.5,338.2z"/>
				<polygon class="st9" points="349.6,318.9 331.1,333.5 332.6,324.7 343.1,316.5 				"/>
				<path class="st8" d="M326.4,324.9c-0.1,0.1-0.3,0.2-0.4,0.3c0-0.1,0.1-0.1,0.1-0.2C326.2,325,326.3,324.9,326.4,324.9z"/>
				<path class="st8" d="M328.1,327.4c-0.1,0.1-0.2,0.2-0.3,0.3c-0.1,0.1-0.3,0.2-0.4,0.3C327.6,327.8,327.9,327.6,328.1,327.4z"/>
				<path class="st8" d="M340.2,313.3c-0.1,0-0.1,0.1-0.2,0.1C340.1,313.4,340.2,313.4,340.2,313.3z"/>
				<path class="st8" d="M342.9,315.1C342.9,315.1,342.9,315.1,342.9,315.1L342.9,315.1c0,0.1-0.1,0.1-0.2,0.1
					C342.8,315.1,342.8,315.1,342.9,315.1z"/>
				<polygon class="st3" points="343.1,316.5 332.6,324.7 332.3,324.5 331.7,324.1 329.1,322.4 328.2,321.8 326,320.4 336.2,312.6 
					338.5,313.9 339.1,314.2 339.1,314.3 339.1,314.3 341.9,315.9 				"/>
				<path class="st8" d="M332.6,324.7l-1.5,8.8l-5.8-3.7c0.7-0.6,1.4-1.2,2.1-1.8c0.1-0.1,0.3-0.1,0.4-0.3c0.1-0.1,0.2-0.2,0.3-0.3
					c0.2-0.3,0.3-0.7,0.2-1.1c-0.1-0.9-0.8-1.6-1.5-1.5c0,0-0.1,0-0.1,0c-0.1,0-0.2,0.1-0.3,0.1c-0.1,0-0.2,0.1-0.2,0.2
					c-0.1,0-0.1,0.1-0.1,0.2c-1.1,1-2.2,2-3.3,2.9l-1.2-0.8l4.5-6.9l2.2,1.4l0.9,0.6l2.6,1.7l0.6,0.4L332.6,324.7z"/>
				<path class="st10" d="M349.6,318.9l-6.5-2.3l-1.2-0.7l-2.8-1.6h0v0l-0.6-0.3l-2.3-1.3l3.8,0.2l0.6,0.4c-0.1,0.1-0.2,0.2-0.3,0.2
					c-0.1,0-0.1,0.1-0.2,0.1c0,0,0,0,0,0c0,0,0,0,0,0c0,0.1,0,0.2,0.1,0.3c0.1,0.3,0.5,0.6,1,0.9c0.6,0.3,1.2,0.5,1.5,0.4
					c0,0,0,0,0,0c0.1,0,0.1-0.1,0.2-0.1l0,0c0,0,0,0,0,0c0.1-0.1,0.2-0.2,0.3-0.3L349.6,318.9z"/>
			</g>
			<g>
				<path class="st11" d="M308.1,341.3c0.1,0.6-0.1,1.1-0.5,1.4c-0.1,0.1-0.2,0.1-0.3,0.2c-0.4,0.3-0.8,0.6-1.2,0.8l-1-2l-0.8-0.4
					c0.5-0.4,1.1-0.7,1.6-1.1c0,0,0,0,0,0c0.1-0.1,0.2-0.1,0.3-0.2c0.1,0,0.1-0.1,0.2-0.1c0,0,0.1,0,0.1,0
					C307.3,339.9,308,340.5,308.1,341.3z"/>
				<path class="st11" d="M328.3,326.3c0,0.4,0,0.8-0.2,1.1c-0.2,0.2-0.4,0.4-0.7,0.6c-0.7,0.6-1.4,1.2-2.1,1.8
					c-0.3,0.3-0.7,0.6-1,0.9l-1.2-0.8l-1.5-0.8c0.4-0.3,0.7-0.6,1.1-0.9c1.1-0.9,2.2-1.9,3.3-2.9c0.1-0.1,0.3-0.2,0.4-0.3
					c0.1-0.1,0.2-0.1,0.3-0.1c0,0,0.1,0,0.1,0C327.5,324.7,328.2,325.4,328.3,326.3z"/>
				<path class="st11" d="M347.8,310.8c0.1,0.5-0.1,1-0.5,1.4c-0.2,0.1-0.4,0.2-0.6,0.3c-0.9,0.5-1.9,1.1-2.9,1.8
					c-0.2,0.2-0.5,0.3-0.7,0.5c-0.1,0.1-0.2,0.2-0.3,0.3c0,0,0,0,0,0c-0.1,0-0.1,0.1-0.2,0.1c0,0,0,0,0,0c-0.3,0.1-0.9-0.1-1.5-0.4
					c-0.5-0.3-0.9-0.6-1-0.9c-0.1-0.1-0.1-0.2-0.1-0.3c0,0,0,0,0,0c0,0,0,0,0,0c0.1,0,0.1-0.1,0.2-0.1c0.1-0.1,0.2-0.2,0.3-0.2
					c0.3-0.2,0.5-0.4,0.8-0.6c1.5-1.1,3-2.1,4.4-2.9c0.2-0.1,0.4-0.2,0.5-0.3c0,0,0.1,0,0.1,0C347,309.3,347.7,309.9,347.8,310.8z"
					/>
			</g>
		</g>
		<g>
			<g>
				<polygon class="st9" points="317.7,362.3 310.6,366 300,371.6 299.8,362.9 309.2,357 310.5,356.2 313.8,354.2 314.7,356.2 
					316.6,360.1 317.2,361.3 				"/>
				<polygon class="st3" points="313.8,354.2 310.5,356.2 309.2,357 299.8,362.9 298.5,362.1 294.4,359.4 304.2,352.4 304.2,352.3 
					306.8,350.5 307.3,350.8 311.2,352.8 312.4,353.5 313,353.8 				"/>
				<polygon class="st8" points="299.8,362.9 300,371.6 291.8,366 294.4,359.4 298.5,362.1 				"/>
				<polygon class="st3" points="331.1,342.1 320.2,350.7 318.8,349.8 318.2,349.4 314.7,347.2 325.5,339.2 329.6,341.4 				"/>
				<path class="st8" d="M314.9,352.5c-0.1,0.1-0.2,0.1-0.3,0.2C314.7,352.6,314.8,352.6,314.9,352.5z"/>
				<path class="st8" d="M315.9,355.5c0.1-0.1,0.2-0.1,0.3-0.2C316.1,355.3,316,355.4,315.9,355.5z"/>
				<polygon class="st8" points="319.1,359.9 318.9,361.6 317.8,360.9 				"/>
				<polygon class="st9" points="337.8,346.9 322.6,358.7 318.9,361.6 319.1,359.9 320,352.6 320.2,350.7 331.1,342.1 332.3,343 
									"/>
				<path class="st8" d="M320.2,350.7l-0.2,1.9l-0.9,7.3l-1.3,0.9l-1.2-0.7l-1.9-3.9c0.4-0.2,0.7-0.5,1.1-0.8c0,0,0,0,0,0
					c0.1-0.1,0.2-0.1,0.3-0.2c0,0,0,0,0,0c0.3-0.3,0.5-0.8,0.5-1.4c-0.1-0.9-0.7-1.5-1.5-1.4l-0.1,0c-0.1,0-0.2,0-0.2,0.1
					c-0.1,0-0.2,0.1-0.3,0.2c0,0,0,0,0,0c-0.5,0.4-1,0.7-1.6,1.1l-0.6-0.3l-1.2-0.7l3.5-5.7l3.5,2.2l0.6,0.4L320.2,350.7z"/>
				<polygon class="st9" points="361.6,327.5 339.1,345.8 340.6,337 355,325.2 				"/>
				<path class="st8" d="M334.4,337.2c-0.2,0.2-0.4,0.4-0.6,0.6c0.1-0.1,0.2-0.2,0.3-0.3C334.1,337.3,334.3,337.2,334.4,337.2z"/>
				<path class="st8" d="M335.9,339.9c-0.1,0.1-0.1,0.1-0.2,0.2c-0.1,0.1-0.2,0.2-0.3,0.2C335.5,340.1,335.7,340,335.9,339.9z"/>
				<path class="st8" d="M352.3,321.9c-0.1,0-0.1,0.1-0.2,0.1C352.2,321.9,352.2,321.9,352.3,321.9z"/>
				<path class="st8" d="M354.9,323.6C354.9,323.6,354.9,323.6,354.9,323.6c0,0.1-0.1,0.1-0.2,0.1
					C354.8,323.7,354.9,323.6,354.9,323.6z"/>
				<polygon class="st3" points="355,325.2 340.6,337 340.3,336.8 339.7,336.4 337.1,334.7 336.1,334.1 333.9,332.7 348.1,321.2 
					350.5,322.5 351.1,322.9 351.1,322.9 353.8,324.5 				"/>
				<path class="st8" d="M340.6,337l-1.5,8.8l-5.8-3.7c0.7-0.6,1.4-1.2,2.1-1.8c0.1,0,0.2-0.1,0.3-0.2c0.1-0.1,0.1-0.1,0.2-0.2
					c0.2-0.3,0.4-0.8,0.3-1.2c-0.1-0.9-0.8-1.6-1.5-1.5c0,0-0.1,0-0.1,0c-0.1,0-0.1,0-0.1,0c0,0,0,0,0,0c-0.1,0.1-0.3,0.1-0.4,0.3
					c-0.1,0.1-0.2,0.2-0.3,0.3c-1,0.9-2,1.8-3.1,2.7l-1.2-0.8l4.5-6.9l2.2,1.4l0.9,0.6l2.6,1.7l0.6,0.4L340.6,337z"/>
				<path class="st10" d="M361.6,327.5l-6.5-2.3l-1.2-0.7l-2.8-1.6l0,0l-0.6-0.3l-2.3-1.3l3.8,0.2l0.6,0.4c-0.1,0.1-0.1,0.1-0.2,0.2
					c0,0,0,0,0,0c-0.1,0-0.1,0.1-0.2,0.1c0,0,0,0,0,0c0,0,0,0,0,0c0,0.1,0,0.2,0.1,0.3c0.1,0.3,0.5,0.6,1,0.9
					c0.6,0.4,1.2,0.5,1.5,0.4c0.1,0,0.1-0.1,0.2-0.1c0,0,0,0,0,0c0.1-0.1,0.2-0.1,0.3-0.2L361.6,327.5z"/>
			</g>
			<g>
				<path class="st11" d="M316.7,353.9c0.1,0.6-0.1,1.1-0.5,1.4c0,0,0,0,0,0c-0.1,0.1-0.2,0.1-0.3,0.2c0,0,0,0,0,0
					c-0.4,0.3-0.7,0.5-1.1,0.8l-1-2l-0.8-0.4c0.5-0.4,1-0.7,1.6-1.1c0,0,0,0,0,0c0.1-0.1,0.2-0.1,0.3-0.2c0.1,0,0.2-0.1,0.2-0.1
					l0.1,0C315.9,352.4,316.6,353,316.7,353.9z"/>
				<path class="st11" d="M336.2,338.6c0.1,0.5-0.1,0.9-0.3,1.2c-0.2,0.1-0.3,0.3-0.5,0.4c-0.7,0.6-1.4,1.2-2.1,1.8
					c-0.3,0.3-0.7,0.6-1,0.9l-1.2-0.8l-1.5-0.8c0.4-0.3,0.7-0.6,1.1-0.9c1-0.9,2-1.8,3.1-2.7c0.2-0.2,0.4-0.4,0.6-0.6c0,0,0,0,0,0
					c0.1,0,0.1,0,0.1,0c0,0,0.1,0,0.1,0C335.4,337,336.1,337.7,336.2,338.6z"/>
				<path class="st11" d="M359.9,319.3c0.1,0.5-0.1,1-0.4,1.3c-0.2,0.1-0.4,0.2-0.6,0.3c-0.8,0.5-1.7,1-2.6,1.6
					c-0.3,0.2-0.7,0.5-1,0.7c-0.1,0.1-0.2,0.1-0.3,0.2c-0.1,0-0.1,0.1-0.2,0.1c-0.3,0.1-0.9,0-1.5-0.4c-0.5-0.3-0.9-0.7-1-0.9
					c-0.1-0.1-0.1-0.2-0.1-0.3c0,0,0,0,0,0c0.1,0,0.1-0.1,0.2-0.1c0,0,0,0,0,0c0.1-0.1,0.1-0.1,0.2-0.2c0.4-0.3,0.7-0.6,1.1-0.8
					c1.5-1.1,2.9-2,4.2-2.7c0.1-0.1,0.3-0.2,0.4-0.2c0,0,0.1,0,0.2,0C359.1,317.9,359.8,318.5,359.9,319.3z"/>
			</g>
		</g>
		<g>
			<g>
				<polygon class="st9" points="332.4,370 331.6,370.4 330.1,371.2 314.7,379.2 314.5,370.6 324,364.6 325.2,363.9 328.5,361.8 
					329.5,363.9 331.3,367.8 331.9,368.9 				"/>
				<polygon class="st3" points="328.5,361.8 325.2,363.9 324,364.6 314.5,370.6 313.2,369.7 309.2,367.1 310.6,366 317.2,361.3 
					317.8,360.9 319.1,359.9 321.5,358.1 322.6,358.7 325.9,360.5 327.1,361.1 327.7,361.4 				"/>
				<polygon class="st8" points="314.5,370.5 314.7,379.2 306.5,373.6 309.2,367.1 313.2,369.7 				"/>
				<polygon class="st3" points="347,349.4 334.9,358.3 333.5,357.4 332.9,357 329.4,354.8 341.3,346.4 345.4,348.6 				"/>
				<path class="st8" d="M330.5,363.2c0.1-0.1,0.2-0.2,0.4-0.2c0,0,0,0,0,0C330.7,363,330.6,363.1,330.5,363.2z"/>
				<polygon class="st8" points="333.8,367.4 333.6,369.2 332.4,368.5 				"/>
				<polygon class="st9" points="353.6,354.1 344,361.3 333.6,369.2 333.8,367.4 334.7,360.2 334.9,358.3 347,349.4 348.1,350.2 
									"/>
				<path class="st8" d="M334.9,358.3l-0.2,1.9l-0.9,7.2l-1.4,1l-1.1-0.7l-1.9-3.9c0.3-0.2,0.7-0.5,1-0.7c0.1-0.1,0.2-0.1,0.3-0.2
					c0,0,0,0,0,0c0.3-0.3,0.5-0.8,0.5-1.4c-0.1-0.9-0.7-1.5-1.5-1.4c0,0-0.1,0-0.1,0c-0.1,0-0.2,0-0.2,0.1c-0.1,0-0.2,0.1-0.3,0.2
					c0,0,0,0,0,0h0c-0.5,0.3-1,0.7-1.5,1l-0.6-0.3l-1.2-0.7l3.5-5.7l3.5,2.2l0.6,0.4L334.9,358.3z"/>
				<polygon class="st9" points="374.8,336.8 354.9,353 356.4,344.2 368.3,334.5 				"/>
				<path class="st8" d="M350.5,344.1c-0.2,0.2-0.4,0.4-0.6,0.5c0.1-0.1,0.1-0.2,0.2-0.3C350.3,344.2,350.4,344.1,350.5,344.1z"/>
				<path class="st8" d="M352,346.8c-0.1,0.1-0.1,0.1-0.2,0.2c-0.1,0.1-0.2,0.2-0.3,0.2C351.7,347.1,351.9,346.9,352,346.8z"/>
				<path class="st8" d="M365.5,331.3c-0.1,0.1-0.1,0.1-0.2,0.2c0,0,0,0,0,0C365.3,331.3,365.4,331.3,365.5,331.3z"/>
				<path class="st8" d="M368.1,333c0,0-0.1,0.1-0.2,0.1C368,333.1,368,333,368.1,333z"/>
				<polygon class="st3" points="368.3,334.5 356.4,344.2 356.1,344 355.5,343.6 352.9,341.9 352,341.3 349.8,339.9 361.4,330.5 
					363.7,331.8 364.3,332.2 364.3,332.2 367.1,333.8 				"/>
				<path class="st8" d="M356.4,344.2l-1.5,8.8l-5.8-3.7c0.8-0.7,1.6-1.4,2.4-2.1c0.1-0.1,0.2-0.1,0.3-0.2c0.1-0.1,0.1-0.1,0.2-0.2
					c0.2-0.3,0.4-0.8,0.3-1.3c-0.1-0.9-0.8-1.6-1.5-1.5c0,0-0.1,0-0.1,0c-0.1,0-0.1,0-0.2,0.1c-0.1,0-0.2,0.1-0.4,0.2
					c-0.1,0.1-0.2,0.2-0.2,0.3c-1.1,1-2.3,2-3.4,3l-1.3-0.8l4.5-6.9l2.2,1.4l0.9,0.6l2.6,1.7l0.6,0.4L356.4,344.2z"/>
				<path class="st10" d="M374.8,336.8l-6.5-2.3l-1.2-0.7l-2.8-1.6l0,0l-0.6-0.3l-2.3-1.3l3.8,0.2l0.6,0.4c-0.1,0.1-0.2,0.1-0.3,0.2
					c0,0,0,0,0,0c-0.1,0-0.2,0.1-0.2,0.1c0,0,0,0,0,0c-0.1,0.1-0.2,0.1-0.2,0.2c0.1-0.1,0.2-0.1,0.2-0.2c0,0,0,0,0,0
					c0,0.1,0,0.2,0.1,0.3c0.1,0.3,0.5,0.6,1,0.9c0.6,0.4,1.2,0.5,1.5,0.4c0.1,0,0.1-0.1,0.2-0.1c0.1-0.1,0.2-0.2,0.3-0.3
					L374.8,336.8z"/>
			</g>
			<g>
				<path class="st11" d="M331.3,361.6c0.1,0.5-0.1,1-0.5,1.4c-0.1,0.1-0.2,0.2-0.4,0.2c-0.3,0.2-0.7,0.5-1,0.7l-1-2l-0.8-0.4
					c0.5-0.3,1-0.7,1.5-1h0c0,0,0,0,0,0c0.1-0.1,0.2-0.1,0.3-0.2c0.1,0,0.2-0.1,0.2-0.1c0,0,0.1,0,0.1,0
					C330.6,360.1,331.2,360.7,331.3,361.6z"/>
				<path class="st11" d="M352.3,345.5c0,0.5-0.1,0.9-0.3,1.3c-0.2,0.1-0.3,0.3-0.5,0.4c-0.8,0.7-1.6,1.4-2.4,2.1
					c-0.3,0.3-0.7,0.6-1,0.9l-1.2-0.8l-1.5-0.8c0.4-0.3,0.7-0.6,1.1-0.9c1.1-1,2.3-2,3.4-3c0.2-0.2,0.4-0.4,0.6-0.5
					c0.1,0,0.1,0,0.2-0.1c0,0,0.1,0,0.1,0C351.6,343.9,352.2,344.6,352.3,345.5z"/>
				<path class="st11" d="M373.4,328.5c0.1,0.6-0.1,1.1-0.5,1.4c-0.2,0.1-0.3,0.2-0.5,0.3c-0.9,0.5-1.7,1-2.7,1.7
					c-0.4,0.3-0.8,0.6-1.3,0.9c-0.1,0.1-0.2,0.2-0.3,0.3c-0.1,0-0.1,0.1-0.2,0.1c-0.3,0.1-0.9,0-1.5-0.4c-0.5-0.3-0.9-0.7-1-0.9
					c-0.1-0.1-0.1-0.2-0.1-0.3c0,0,0,0,0,0v0c0.1-0.1,0.1-0.1,0.2-0.2c0,0,0,0,0,0c0.1-0.1,0.2-0.1,0.3-0.2h0c0.4-0.3,0.9-0.7,1.3-1
					c1.5-1.1,2.9-2,4.2-2.7c0.2-0.1,0.4-0.2,0.6-0.3l0.1,0C372.7,327,373.3,327.6,373.4,328.5z"/>
			</g>
		</g>
		<g>
			<g>
				<polygon class="st9" points="353.9,372.5 336.3,381.9 336,373.2 345.4,367.3 346.7,366.5 349.9,364.4 350.9,366.4 352.8,370.3 
									"/>
				<polygon class="st3" points="349.9,364.4 346.7,366.5 345.4,367.3 336,373.2 334.7,372.4 331.6,370.4 330.6,369.8 331.9,368.9 
					332.4,368.5 333.8,367.4 342.9,360.8 344,361.3 347.3,363.1 348.6,363.7 349.2,364 				"/>
				<polygon class="st8" points="336,373.2 336.3,381.9 328,376.3 330.6,369.8 334.7,372.4 				"/>
				<polygon class="st3" points="362.6,356 356.3,360.9 354.9,360 354.3,359.6 350.8,357.4 356.9,353.1 361.1,355.2 				"/>
				<path class="st8" d="M351.2,362.7c-0.1,0.1-0.2,0.2-0.4,0.2c0,0,0,0,0,0C350.9,362.8,351.1,362.7,351.2,362.7z"/>
				<path class="st8" d="M352.5,365.4c-0.1,0.1-0.2,0.1-0.3,0.2C352.3,365.5,352.4,365.4,352.5,365.4z"/>
				<polygon class="st9" points="369.3,360.7 355,371.8 356.1,362.8 356.3,360.9 362.6,356 363.8,356.8 				"/>
				<path class="st8" d="M356.3,360.9l-0.2,1.9l-1.1,8.9l-2.3-1.4l-1.9-3.9c0.4-0.3,0.9-0.6,1.3-0.9c0,0,0,0,0,0
					c0.1,0,0.2-0.1,0.3-0.2c0.3-0.3,0.5-0.8,0.5-1.4c-0.1-0.9-0.7-1.5-1.5-1.4c0,0-0.1,0-0.1,0c-0.1,0-0.1,0-0.2,0.1
					c-0.1,0-0.2,0.1-0.3,0.2c0,0,0,0,0,0c-0.6,0.4-1.1,0.8-1.7,1.1l-0.6-0.3l-1.2-0.7l3.5-5.7l3.5,2.2l0.6,0.4L356.3,360.9z"/>
				<polygon class="st9" points="387.9,345.1 370.6,359.6 372,350.7 381.4,342.9 				"/>
				<path class="st8" d="M366.3,350.5c-0.2,0.2-0.4,0.3-0.5,0.5c0.1-0.1,0.1-0.2,0.2-0.3C366.1,350.7,366.2,350.6,366.3,350.5z"/>
				<path class="st8" d="M367.9,353.2c-0.1,0.1-0.1,0.2-0.2,0.3c-0.1,0.1-0.2,0.2-0.3,0.2C367.5,353.5,367.7,353.3,367.9,353.2z"/>
				<path class="st8" d="M378.7,339.6c-0.1,0-0.1,0.1-0.2,0.1c0,0,0,0,0,0C378.5,339.6,378.6,339.6,378.7,339.6z"/>
				<path class="st8" d="M381.1,341.4C381.1,341.4,381.1,341.4,381.1,341.4c-0.1,0.1-0.2,0.1-0.3,0.2
					C380.9,341.6,381,341.5,381.1,341.4z"/>
				<path class="st8" d="M381.3,341.3C381.3,341.3,381.3,341.3,381.3,341.3C381.3,341.3,381.3,341.3,381.3,341.3
					c0,0.1-0.1,0.1-0.2,0.1C381.2,341.4,381.3,341.3,381.3,341.3z"/>
				<polygon class="st3" points="381.4,342.9 372,350.7 371.7,350.6 371.1,350.2 368.5,348.5 367.6,347.9 365.4,346.5 374.5,338.9 
					376.8,340.2 377.4,340.6 377.4,340.6 380.2,342.2 				"/>
				<path class="st8" d="M372,350.7l-1.4,8.8l-5.8-3.6c0.8-0.7,1.7-1.5,2.5-2.3c0.1-0.1,0.2-0.1,0.3-0.2c0.1-0.1,0.2-0.2,0.2-0.3
					c0,0,0,0,0,0c0.2-0.3,0.3-0.7,0.2-1.2c-0.1-0.9-0.8-1.6-1.5-1.5c0,0-0.1,0-0.1,0c-0.1,0-0.2,0-0.2,0.1c-0.1,0.1-0.2,0.1-0.3,0.2
					c-0.1,0.1-0.2,0.2-0.2,0.3c-1.2,1.1-2.4,2.2-3.6,3.2l-1.3-0.8l4.4-6.9l2.2,1.4l0.9,0.6l2.6,1.6l0.6,0.4L372,350.7z"/>
				<path class="st10" d="M387.9,345.1l-6.5-2.3l-1.2-0.7l-2.8-1.6h0l-0.6-0.3l-2.3-1.3l3.8,0.1l0.6,0.4c-0.1,0-0.1,0.1-0.2,0.1
					c-0.1,0-0.1,0.1-0.2,0.1c0,0,0,0,0,0c-0.1,0.1-0.2,0.2-0.4,0.3c0.1-0.1,0.3-0.2,0.4-0.3c0,0,0,0,0,0c0,0.1,0,0.2,0.1,0.3
					c0.1,0.3,0.5,0.6,1,0.9c0.6,0.3,1.2,0.5,1.5,0.4c-0.1,0.1-0.2,0.1-0.3,0.2c0.1-0.1,0.2-0.1,0.3-0.2c0.1,0,0.1-0.1,0.2-0.1
					c0,0,0,0,0,0c0,0,0,0,0,0c0.1-0.1,0.1-0.1,0.2-0.2L387.9,345.1z"/>
			</g>
			<g>
				<path class="st11" d="M353,364c0.1,0.6-0.1,1.1-0.5,1.4c-0.1,0.1-0.2,0.1-0.3,0.2c0,0,0,0,0,0c-0.4,0.3-0.9,0.6-1.3,0.9l-1-2
					l-0.8-0.4c0.6-0.4,1.1-0.8,1.7-1.1c0.1-0.1,0.2-0.2,0.4-0.2c0.1,0,0.1-0.1,0.2-0.1c0,0,0.1,0,0.1,0
					C352.2,362.5,352.9,363.1,353,364z"/>
				<path class="st11" d="M368.1,352c0,0.4-0.1,0.9-0.2,1.2c0,0,0,0,0,0c-0.2,0.2-0.4,0.3-0.5,0.5c-0.8,0.8-1.7,1.5-2.5,2.3
					c-0.3,0.3-0.7,0.6-1,0.9l-1.2-0.8l-1.5-0.8c0.4-0.3,0.7-0.6,1.1-0.9c1.2-1,2.4-2.1,3.6-3.2c0.2-0.2,0.4-0.3,0.5-0.5
					c0.1,0,0.1-0.1,0.2-0.1c0,0,0.1,0,0.1,0C367.4,350.4,368,351,368.1,352z"/>
				<path class="st11" d="M386,337.1c0.1,0.6-0.1,1.1-0.5,1.4c-0.2,0.1-0.3,0.2-0.5,0.3c-0.9,0.5-1.7,1.1-2.7,1.7
					c-0.3,0.2-0.6,0.4-0.9,0.6c-0.1,0.1-0.1,0.1-0.2,0.2c0,0,0,0,0,0c-0.1,0-0.1,0.1-0.2,0.1c-0.1,0.1-0.2,0.1-0.3,0.2
					c0.1-0.1,0.2-0.1,0.3-0.2c-0.3,0.1-0.9-0.1-1.5-0.4c-0.5-0.3-0.9-0.6-1-0.9c-0.1-0.1-0.1-0.2-0.1-0.3c0,0,0,0,0,0c0,0,0,0,0,0
					c0.1,0,0.1-0.1,0.2-0.1c0.1,0,0.1-0.1,0.2-0.1h0c0.3-0.2,0.6-0.5,0.9-0.7c1.4-1.1,2.8-2,4.1-2.7c0.2-0.1,0.4-0.2,0.5-0.3
					c0,0,0.1,0,0.1,0C385.3,335.6,385.9,336.2,386,337.1z"/>
			</g>
		</g>
		<path class="st12" d="M390.9,271.1l-10.1,4.8l2.9-0.1l-6.5,7l0.4,11.7l-16.3,5.4l0,0l-2.5,0.8l-9.2-2.1l-3.4-1.4l-4.7,4l50.2,34.2
			l18.5-18.3l7.6-30.4L390.9,271.1z M378.4,313c1.1-2.9,1.8-5.1,1.8-5.1c3.5-0.4,6.9-1.6,10-3.2c0.2,2,0.6,3.3,0.6,3.3
			C386.9,308.5,382.1,310.9,378.4,313z"/>
		<path class="st10" d="M380.2,307.9c0,0-0.7,2.2-1.8,5.1v0c-3,1.7-5.2,3.3-5.4,3.4c2.8-4.5,3.8-16.4,3.8-16.4L380.2,307.9z"/>
		<path class="st5" d="M394.2,291.1c-4,5-4.3,10.3-4,13.6v0c-3,1.5-6.4,2.8-10,3.2l-3.4-7.9C386.1,300.2,394.2,291.1,394.2,291.1z"
			/>
		<polygon class="st9" points="412.7,327.5 395.2,346.3 389.3,345.2 391.6,335.4 410.1,317.1 		"/>
		<polygon class="st2" points="419.7,295.6 412.7,327.5 410.1,317.1 417.7,286.6 		"/>
		<g>
			<polygon class="st8" points="310,309.5 303.2,311.9 301.8,300.1 309,302.2 309.6,306.8 			"/>
			<path class="st12" d="M318.6,293.4l-1.6,1.5c0,0,0,0,0,0l-7.1,6.5h0l-0.8,0.8l-7.2-2.1l12.2-14l2,3.1L318.6,293.4z"/>
			<polygon class="st12" points="338.6,278.3 338,285.8 324.3,289.3 315.2,285.1 			"/>
			<path class="st9" d="M320.1,302.3l-10.1,7.2l-0.4-2.6l-0.6-4.7l0.8-0.8h0l7.1-6.5c0,0,0,0,0,0l1.6-1.5l0.1,0.4l0.5,3.1l0.6,3.7
				l0,0.1L320.1,302.3z"/>
			<path class="st8" d="M326.1,299.8l-6.2,1l0-0.1l-0.6-3.7c0.5-0.3,1-0.6,1.6-0.9c0,0,0.1,0,0.1,0c0.2,0,0.3-0.1,0.5-0.3
				c0,0,0,0,0,0c0.3-0.3,0.5-0.8,0.5-1.4c-0.1-0.9-0.7-1.5-1.5-1.4l-0.1,0c0,0,0,0,0,0c0,0,0,0,0,0c0,0,0,0,0,0l0,0
				c-0.2,0-0.3,0.1-0.5,0.2h0c-0.4,0.2-0.8,0.4-1.2,0.6l-0.1-0.4l-2.6-4.2l-0.8-4.1l9.1,4.2l0.4,2.1l0.5,3l0.8,4.8L326.1,299.8z"/>
			<path class="st8" d="M321.9,294.4c0.1,0.6-0.1,1.1-0.5,1.4c0,0,0,0,0,0c-0.1,0.1-0.3,0.2-0.5,0.3c0,0-0.1,0-0.1,0
				c-0.5,0.3-1.1,0.6-1.6,0.9l-0.5-3.1c0.4-0.2,0.8-0.4,1.2-0.6h0c0.1-0.1,0.3-0.2,0.5-0.2l0,0c0,0,0,0,0,0c0,0,0,0,0,0c0,0,0,0,0,0
				l0.1,0C321.1,292.9,321.8,293.5,321.9,294.4z"/>
			<polygon class="st9" points="339.2,297 326.1,299.8 326,299.1 325.1,294.3 324.6,291.4 324.3,289.3 338,285.8 338.2,288 
				338.6,291 339.1,295.9 			"/>
			<path class="st10" d="M338.9,288.2c-0.1,0.3-0.1,0.8,0,1.3c0.1,0.7,0.2,1.2,0.3,1.4h0c0,0.1,0.1,0.1,0.1,0.1c0,0,0,0,0,0
				c0,0,0,0,0.1-0.1c0.2,0,0.4,0,0.6,0l0.5,4.7l-1.2,1.4l-0.1-1l-0.6-4.9l-0.3-3l-0.3-2.2l0.7-7.5l1,9.7c-0.2,0-0.4,0-0.6,0
				c0,0,0,0-0.1,0c0,0,0,0,0,0c0,0,0,0,0,0C338.9,288,338.9,288.1,338.9,288.2z"/>
			<path class="st10" d="M339.7,288l0.3,3c-0.2,0-0.4,0-0.6,0c0,0,0,0.1-0.1,0.1c0,0,0,0,0,0c0,0-0.1,0-0.1-0.1h0
				c-0.1-0.2-0.3-0.8-0.3-1.4c-0.1-0.6-0.1-1.1,0-1.3c0-0.1,0-0.2,0.1-0.2c0,0,0,0,0,0c0,0,0,0,0,0c0,0,0,0,0.1,0
				C339.3,288,339.5,288,339.7,288z"/>
			<path class="st8" d="M348.9,284.3l0.2,4.3l0.1,3l0.1,2.9l0.1,2.7l0.1,1.4l-3.4-1.4l-4.3-1.8l-0.4-4.5c0.8,0,1.6,0.1,2.5,0.1
				c0.2,0.1,0.4,0.1,0.6,0.1c0.1,0,0.1,0,0.2,0c0,0,0,0,0.1,0c0.2-0.1,0.3-0.1,0.4-0.2c0.3-0.3,0.5-0.8,0.5-1.4
				c-0.1-0.6-0.4-1.2-0.9-1.4c0,0,0,0,0,0c-0.2-0.1-0.3-0.1-0.5-0.1c0,0-0.1,0-0.1,0c0,0,0,0,0,0c-1-0.1-2-0.1-2.8-0.1l-0.8-9.9
				L348.9,284.3z"/>
			<path class="st8" d="M345.8,289.5c0.1,0.6-0.1,1.1-0.5,1.4c-0.1,0.1-0.3,0.2-0.4,0.2c0,0,0,0-0.1,0c-0.1,0-0.1,0-0.2,0
				c-0.2,0-0.4,0-0.6-0.1c-0.9-0.1-1.7-0.1-2.5-0.1l-0.2-3c0.9,0,1.8,0,2.8,0.1c0,0,0,0,0,0c0,0,0.1,0,0.1,0c0.2,0,0.3,0,0.5,0.1
				c0,0,0,0,0,0C345.3,288.3,345.7,288.8,345.8,289.5z"/>
			<polygon class="st12" points="383.7,275.8 377.2,282.8 365.2,283.4 348.9,284.3 340.6,278.1 380.8,275.9 			"/>
			<polygon class="st10" points="383.7,275.8 383.8,278.9 377.5,294.5 377.5,294.5 377.2,282.8 			"/>
			<polygon class="st9" points="377.2,282.8 377.5,294.5 361.3,299.9 361.2,299.9 358.7,300.7 349.6,298.6 349.5,297.2 349.4,294.5 
				349.3,291.5 349.1,288.5 348.9,284.3 365.2,283.4 			"/>
		</g>
		<g>
			<path class="st11" d="M321.9,294.4c0.1,0.6-0.1,1.1-0.5,1.4c0,0,0,0,0,0c-0.2,0.1-0.4,0.2-0.6,0.3c-0.5,0.3-1.1,0.6-1.6,0.9
				l-0.5-3.1c0.4-0.2,0.8-0.4,1.2-0.6h0c0.2-0.1,0.3-0.2,0.5-0.2c0,0,0,0,0,0c0,0,0,0,0,0c0,0,0,0,0,0l0.1,0
				C321.1,292.9,321.8,293.5,321.9,294.4z"/>
			<path class="st11" d="M345.8,289.5c0.1,0.6-0.1,1.1-0.5,1.4c-0.1,0.1-0.3,0.2-0.4,0.2c-0.3,0-0.6,0-0.8-0.1
				c-0.9-0.1-1.7-0.1-2.5-0.1c-0.6,0-1.1,0-1.6,0c-0.2,0-0.4,0-0.6,0c-0.1,0-0.1,0-0.2,0h0c-0.1-0.2-0.3-0.8-0.3-1.4
				c-0.1-0.6-0.1-1.1,0-1.3c0-0.1,0-0.2,0.1-0.2c0,0,0.1,0,0.1,0c0.2,0,0.4,0,0.6,0c0.5,0,1.1,0,1.7,0c0.9,0,1.8,0,2.8,0.1
				c0.2,0,0.4,0,0.7,0c0,0,0,0,0,0C345.3,288.3,345.7,288.8,345.8,289.5z"/>
		</g>
	</g>
</g>
</svg>
