<?xml version="1.0" encoding="utf-8"?>
<!-- Generator: Adobe Illustrator 26.5.0, SVG Export Plug-In . SVG Version: 6.00 Build 0)  -->
<svg version="1.1" xmlns="http://www.w3.org/2000/svg" xmlns:xlink="http://www.w3.org/1999/xlink" x="0px" y="0px"
	 viewBox="0 0 101 101" style="enable-background:new 0 0 101 101;" xml:space="preserve">
<style type="text/css">
	.st0{display:none;}
	.st1{fill:none;stroke:#000000;stroke-miterlimit:10;}
</style>
<g id="Layer_1" class="st0">
</g>
<g id="Layer_2">
	<g>
		<g>
			<path class="st1" d="M82.3,18.9v55.7H18.7V18.9h4v51.9l5.3-0.8c5.7-0.9,11.6-0.9,17.3,0l5.3,0.8l5.3-0.8c5.7-0.9,11.6-0.9,17.3,0
				l5.3,0.8V18.9H82.3z"/>
			<path class="st1" d="M50.5,14.9v55.9L45.2,70c-5.7-0.9-11.6-0.9-17.3,0l-5.3,0.8V14.9l5.3-0.8c5.7-0.9,11.6-0.9,17.3,0L50.5,14.9
				z"/>
			<path class="st1" d="M78.4,14.9v55.9L73.1,70c-5.7-0.9-11.6-0.9-17.3,0l-5.3,0.8V14.9l5.3-0.8c5.7-0.9,11.6-0.9,17.3,0L78.4,14.9
				z"/>
		</g>
		<g>
			<path d="M14.3,79.7v0.9h-3.5v7H9.9v-7H6.3v-0.9H14.3z"/>
			<path d="M23,83.3c0,0.7-0.6,1.3-1.3,1.3h-1.2l2.5,2.9h-1.2l-2.5-2.9h-2.9c-0.1,0-0.3,0-0.4,0v3h-0.9v-7.9h6.6
				c0.7,0,1.3,0.6,1.3,1.3V83.3z M21.7,83.7c0.2,0,0.4-0.2,0.4-0.4V81c0-0.2-0.2-0.4-0.4-0.4h-5.3c-0.2,0-0.4,0.2-0.4,0.4v2.3
				c0,0.2,0.2,0.4,0.4,0.4H21.7z"/>
			<path d="M30.8,79.7c0.7,0,1.3,0.6,1.3,1.3v6.6h-0.9v-2.9h-6.1v2.9h-0.9V81c0-0.7,0.6-1.3,1.3-1.3H30.8z M31.2,83.8V81
				c0-0.2-0.2-0.4-0.4-0.4h-5.3c-0.2,0-0.4,0.2-0.4,0.4v2.8H31.2z"/>
			<path d="M40.4,79.7h0.9v7.9H40l-5.8-6.9v6.9h-0.9v-7.9h1.2l5.8,6.9V79.7z"/>
			<path d="M50.4,81.3h-0.9V81c0-0.2-0.2-0.4-0.4-0.4h-5.3c-0.2,0-0.4,0.2-0.4,0.4v1.8c0,0.2,0.2,0.4,0.4,0.4H49
				c0.7,0,1.3,0.6,1.3,1.3v1.8c0,0.7-0.6,1.3-1.3,1.3h-5.3c-0.7,0-1.3-0.6-1.3-1.3V86h0.9v0.3c0,0.2,0.2,0.4,0.4,0.4H49
				c0.2,0,0.4-0.2,0.4-0.4v-1.8c0-0.2-0.2-0.4-0.4-0.4h-5.3c-0.7,0-1.3-0.6-1.3-1.3V81c0-0.7,0.6-1.3,1.3-1.3H49
				c0.7,0,1.3,0.6,1.3,1.3V81.3z"/>
			<path d="M51.5,79.7h0.9v7h7v0.9h-7.9V79.7z"/>
			<path d="M66.7,79.7c0.7,0,1.3,0.6,1.3,1.3v6.6h-0.9v-2.9H61v2.9h-0.9V81c0-0.7,0.6-1.3,1.3-1.3H66.7z M67.2,83.8V81
				c0-0.2-0.2-0.4-0.4-0.4h-5.3c-0.2,0-0.4,0.2-0.4,0.4v2.8H67.2z"/>
			<path d="M76.8,79.7v0.9h-3.5v7h-0.9v-7h-3.5v-0.9H76.8z"/>
			<path d="M84.2,79.7c0.7,0,1.3,0.6,1.3,1.3v5.3c0,0.7-0.6,1.3-1.3,1.3H79c-0.7,0-1.3-0.6-1.3-1.3V81c0-0.7,0.6-1.3,1.3-1.3H84.2z
				 M84.2,86.7c0.2,0,0.4-0.2,0.4-0.4V81c0-0.2-0.2-0.4-0.4-0.4H79c-0.2,0-0.4,0.2-0.4,0.4v5.3c0,0.2,0.2,0.4,0.4,0.4H84.2z"/>
			<path d="M94.7,83.3c0,0.7-0.6,1.3-1.3,1.3h-1.2l2.5,2.9h-1.2L91,84.6h-2.9c-0.1,0-0.3,0-0.4,0v3h-0.9v-7.9h6.6
				c0.7,0,1.3,0.6,1.3,1.3V83.3z M93.4,83.7c0.2,0,0.4-0.2,0.4-0.4V81c0-0.2-0.2-0.4-0.4-0.4h-5.3c-0.2,0-0.4,0.2-0.4,0.4v2.3
				c0,0.2,0.2,0.4,0.4,0.4H93.4z"/>
		</g>
	</g>
</g>
<g id="Layer_3">
</g>
</svg>
