<?xml version="1.0" encoding="UTF-8" standalone="no"?>
<!-- Generator: Adobe Illustrator 26.5.0, SVG Export Plug-In . SVG Version: 6.00 Build 0)  -->

<svg
   version="1.1"
   id="Layer_1"
   x="0px"
   y="0px"
   viewBox="0 0 111 111"
   style="enable-background:new 0 0 111 111;"
   xml:space="preserve"
   sodipodi:docname="warning.svg"
   inkscape:version="1.3.2 (091e20e, 2023-11-25, custom)"
   xmlns:inkscape="http://www.inkscape.org/namespaces/inkscape"
   xmlns:sodipodi="http://sodipodi.sourceforge.net/DTD/sodipodi-0.dtd"
   xmlns="http://www.w3.org/2000/svg"
   xmlns:svg="http://www.w3.org/2000/svg"><sodipodi:namedview
   id="namedview1"
   pagecolor="#ffffff"
   bordercolor="#666666"
   borderopacity="1.0"
   inkscape:showpageshadow="2"
   inkscape:pageopacity="0.0"
   inkscape:pagecheckerboard="0"
   inkscape:deskcolor="#d1d1d1"
   showgrid="true"
   inkscape:zoom="7.0900901"
   inkscape:cx="55.429479"
   inkscape:cy="55.5"
   inkscape:window-width="1920"
   inkscape:window-height="1001"
   inkscape:window-x="-9"
   inkscape:window-y="-9"
   inkscape:window-maximized="1"
   inkscape:current-layer="Layer_1"><inkscape:grid
     id="grid1"
     units="px"
     originx="0"
     originy="0"
     spacingx="1"
     spacingy="1"
     empcolor="#0099e5"
     empopacity="0.30196078"
     color="#0099e5"
     opacity="0.14901961"
     empspacing="5"
     dotted="false"
     gridanglex="30"
     gridanglez="30"
     visible="true" /></sodipodi:namedview><defs
   id="defs2" />
<style
   type="text/css"
   id="style1">
	.st0{display:none;}
	.st1{stroke:#FFF8A3;stroke-miterlimit:10;}
</style>

<g
   inkscape:groupmode="layer"
   id="layer2"
   inkscape:label="Layer 1"><path
     id="path2"
     style="opacity:0.9;fill:#000000;fill-rule:evenodd;stroke:#fff8a3;stroke-width:3;stroke-dasharray:none"
     d="M 55.499999,10.804569 A 44.695863,44.695863 0 0 0 10.804569,55.5 44.695863,44.695863 0 0 0 55.499999,100.19543 44.695863,44.695863 0 0 0 100.19543,55.5 44.695863,44.695863 0 0 0 55.499999,10.804569 Z m 0,12.751938 A 31.943619,31.943619 0 0 1 87.443492,55.5 31.943619,31.943619 0 0 1 55.499999,87.443492 31.943619,31.943619 0 0 1 23.556507,55.5 31.943619,31.943619 0 0 1 55.499999,23.556507 Z" /><g
     id="g2"
     transform="translate(0.09046853,-1.6528615)"><rect
       style="opacity:0.9;fill:#000000;fill-rule:evenodd;stroke:#fff8a3;stroke-width:3;stroke-dasharray:none"
       id="rect2"
       width="10.437103"
       height="10.437103"
       x="50.210926"
       y="70.379921" /><rect
       style="opacity:0.9;fill:#000000;fill-rule:evenodd;stroke:#fff8a3;stroke-width:3.20361;stroke-dasharray:none"
       id="rect2-9"
       width="10.233393"
       height="31.279015"
       x="50.272839"
       y="33.590504" /></g></g></svg>
